<svg width="21" height="21" viewBox="0 0 21 21" fill="none" xmlns="http://www.w3.org/2000/svg">
<path fill-rule="evenodd" clip-rule="evenodd" d="M6 1.75C5.30964 1.75 4.75 2.30964 4.75 3V7C4.75 7.41421 4.41421 7.75 4 7.75C3.58579 7.75 3.25 7.41421 3.25 7V3C3.25 1.48122 4.48122 0.25 6 0.25H18C19.5188 0.25 20.75 1.48122 20.75 3V16C20.75 17.5188 19.5188 18.75 18 18.75H14C13.5858 18.75 13.25 18.4142 13.25 18C13.25 17.5858 13.5858 17.25 14 17.25H18C18.6904 17.25 19.25 16.6904 19.25 16V3C19.25 2.30964 18.6904 1.75 18 1.75H6ZM13.25 5C13.25 4.58579 13.5858 4.25 14 4.25H15.9999H16C16.4142 4.25 16.75 4.58579 16.75 5V7C16.75 7.41421 16.4142 7.75 16 7.75C15.5858 7.75 15.25 7.41421 15.25 7V6.8112L13.5319 8.53019C13.3907 8.67145 13.2072 8.74463 13.0222 8.74971C12.8505 8.75487 12.6761 8.70139 12.5315 8.58568L10.5557 7.005L9.53033 8.03033C9.23744 8.32322 8.76256 8.32322 8.46967 8.03033C8.17678 7.73744 8.17678 7.26256 8.46967 6.96967L9.96581 5.47353C10.1102 5.32665 10.3038 5.25039 10.499 5.25C10.5896 5.24982 10.6806 5.26598 10.7671 5.29899C10.8413 5.32721 10.9119 5.36762 10.9759 5.42022L12.945 6.99554L14.1899 5.75H14C13.5858 5.75 13.25 5.41421 13.25 5ZM13.25 11C13.25 10.5858 13.5858 10.25 14 10.25H16C16.4142 10.25 16.75 10.5858 16.75 11C16.75 11.4142 16.4142 11.75 16 11.75H14C13.5858 11.75 13.25 11.4142 13.25 11ZM14 13.25C13.5858 13.25 13.25 13.5858 13.25 14C13.25 14.4142 13.5858 14.75 14 14.75H16C16.4142 14.75 16.75 14.4142 16.75 14C16.75 13.5858 16.4142 13.25 16 13.25H14ZM8.09785 13.6862C8.39083 13.979 8.39095 14.4539 8.09814 14.7469L6.09921 16.7469C5.80643 17.0398 5.33163 17.04 5.03864 16.7472L3.83758 15.5472C3.54456 15.2545 3.54435 14.7796 3.83711 14.4866C4.12988 14.1936 4.60475 14.1933 4.89777 14.4861L5.56836 15.1561L7.03719 13.6865C7.33001 13.3935 7.80488 13.3934 8.09785 13.6862ZM4 9.25C1.92893 9.25 0.25 10.9289 0.25 13V17C0.25 19.0711 1.92893 20.75 4 20.75H8C10.0711 20.75 11.75 19.0711 11.75 17V13C11.75 10.9289 10.0711 9.25 8 9.25H4ZM1.75 13C1.75 11.7574 2.75736 10.75 4 10.75H8C9.24264 10.75 10.25 11.7574 10.25 13V17C10.25 18.2426 9.24264 19.25 8 19.25H4C2.75736 19.25 1.75 18.2426 1.75 17V13Z" fill="white" fill-opacity="0.9"/>
</svg>
