<svg width="22" height="20" viewBox="0 0 22 20" fill="none" xmlns="http://www.w3.org/2000/svg">
<path fill-rule="evenodd" clip-rule="evenodd" d="M19 0C19.3228 1.50309 20.4969 2.67723 22 3C20.4969 3.32277 19.3228 4.49691 19 6C18.6772 4.49691 17.5031 3.32277 16 3C17.5031 2.67723 18.6772 1.50309 19 0ZM9.07204 0.200003C9.98354 4.44472 13.2993 7.7605 17.544 8.672C13.2993 9.5835 9.98354 12.8993 9.07204 17.144C8.16054 12.8993 4.84475 9.5835 0.600037 8.672C4.84475 7.7605 8.16054 4.44472 9.07204 0.200003ZM22 16C19.9959 15.5696 18.4303 14.0041 18 12C17.5696 14.0041 16.0041 15.5696 14 16C16.0041 16.4304 17.5696 17.9959 18 20C18.4303 17.9959 19.9959 16.4304 22 16Z" fill="white"/>
</svg>
