<svg width="24" height="20" viewBox="0 0 24 20" fill="none" xmlns="http://www.w3.org/2000/svg">
<path fill-rule="evenodd" clip-rule="evenodd" d="M2.46967 7.21967C2.76256 6.92678 3.23744 6.92678 3.53033 7.21967L5.03033 8.71967C5.32322 9.01256 5.32322 9.48744 5.03033 9.78033C4.73744 10.0732 4.26256 10.0732 3.96967 9.78033L3 8.81066L2.03033 9.78033C1.73744 10.0732 1.26256 10.0732 0.96967 9.78033C0.676777 9.48744 0.676777 9.01256 0.96967 8.71967L2.46967 7.21967Z" fill="white" fill-opacity="0.9"/>
<path fill-rule="evenodd" clip-rule="evenodd" d="M18.9697 10.2197C19.2626 9.92678 19.7374 9.92678 20.0303 10.2197L21 11.1893L21.9697 10.2197C22.2626 9.92678 22.7374 9.92678 23.0303 10.2197C23.3232 10.5126 23.3232 10.9874 23.0303 11.2803L21.5303 12.7803C21.2374 13.0732 20.7626 13.0732 20.4697 12.7803L18.9697 11.2803C18.6768 10.9874 18.6768 10.5126 18.9697 10.2197Z" fill="white" fill-opacity="0.9"/>
<path fill-rule="evenodd" clip-rule="evenodd" d="M12 1.75C9.23022 1.75 6.78752 3.12317 5.28868 5.2254C5.04821 5.56267 4.57987 5.64114 4.2426 5.40068C3.90533 5.16021 3.82686 4.69187 4.06732 4.3546C5.83248 1.87883 8.71978 0.25 12 0.25C17.3842 0.25 21.75 4.61579 21.75 10C21.75 10.745 21.6596 11.4643 21.5047 12.1526C21.4138 12.5567 21.0125 12.8106 20.6084 12.7197C20.2043 12.6288 19.9504 12.2275 20.0413 11.8234C20.1744 11.2317 20.25 10.623 20.25 10C20.25 5.44421 16.5558 1.75 12 1.75Z" fill="white" fill-opacity="0.9"/>
<path fill-rule="evenodd" clip-rule="evenodd" d="M3.96711 4.55098C4.09912 4.15836 4.52441 3.9471 4.91702 4.07911C7.14645 4.82871 9.52284 5.25 12 5.25C14.4772 5.25 16.8535 4.82871 19.083 4.07911C19.4756 3.9471 19.9009 4.15836 20.0329 4.55098C20.1649 4.94359 19.9536 5.36888 19.561 5.50089C17.1865 6.29929 14.6488 6.75 12 6.75C9.35116 6.75 6.81355 6.29929 4.43898 5.50089C4.04636 5.36888 3.8351 4.94359 3.96711 4.55098Z" fill="white" fill-opacity="0.9"/>
<path fill-rule="evenodd" clip-rule="evenodd" d="M3.38763 7.27629C3.79175 7.36722 4.04563 7.76852 3.95471 8.17263C3.82157 8.76435 3.746 9.37298 3.746 9.996C3.746 14.5518 7.44021 18.246 11.996 18.246C14.7669 18.246 17.2094 16.8728 18.7072 14.7708C18.9476 14.4334 19.4159 14.3548 19.7532 14.5952C20.0906 14.8356 20.1692 15.3039 19.9288 15.6412C18.1646 18.1172 15.2771 19.746 11.996 19.746C6.61179 19.746 2.246 15.3802 2.246 9.996C2.246 9.25102 2.33643 8.53165 2.49129 7.84337C2.58222 7.43925 2.98352 7.18537 3.38763 7.27629Z" fill="white" fill-opacity="0.9"/>
<path fill-rule="evenodd" clip-rule="evenodd" d="M11.997 14.746C9.51984 14.746 7.14345 15.1673 4.91402 15.9169C4.52141 16.0489 4.09612 15.8376 3.96411 15.445C3.8321 15.0524 4.04336 14.6271 4.43598 14.4951C6.81055 13.6967 9.34816 13.246 11.997 13.246C14.6458 13.246 17.1835 13.6967 19.558 14.4951C19.9506 14.6271 20.1619 15.0524 20.0299 15.445C19.8979 15.8376 19.4726 16.0489 19.08 15.9169C16.8505 15.1673 14.4742 14.746 11.997 14.746Z" fill="white" fill-opacity="0.9"/>
<path fill-rule="evenodd" clip-rule="evenodd" d="M10.006 1.18093C10.5467 0.632094 11.221 0.25 12 0.25C12.779 0.25 13.4533 0.632094 13.994 1.18093C14.532 1.72712 14.982 2.47899 15.344 3.34758C16.0691 5.08802 16.5 7.44045 16.5 10C16.5 12.5596 16.0691 14.912 15.344 16.6524C14.982 17.521 14.532 18.2729 13.994 18.8191C13.4533 19.3679 12.779 19.75 12 19.75C11.221 19.75 10.5467 19.3679 10.006 18.8191C9.46798 18.2729 9.01795 17.521 8.65604 16.6524C7.93086 14.912 7.5 12.5596 7.5 10C7.5 7.44045 7.93086 5.08802 8.65604 3.34758C9.01795 2.47899 9.46798 1.72712 10.006 1.18093ZM10.0407 3.9245C9.40861 5.44141 9 7.58899 9 10C9 12.411 9.40861 14.5586 10.0407 16.0755C10.3574 16.8356 10.7154 17.4017 11.0746 17.7664C11.4312 18.1284 11.7435 18.25 12 18.25C12.2565 18.25 12.5688 18.1284 12.9254 17.7664C13.2846 17.4017 13.6426 16.8356 13.9593 16.0755C14.5914 14.5586 15 12.411 15 10C15 7.58899 14.5914 5.44141 13.9593 3.9245C13.6426 3.16441 13.2846 2.59826 12.9254 2.2336C12.5688 1.87159 12.2565 1.75 12 1.75C11.7435 1.75 11.4312 1.87159 11.0746 2.2336C10.7154 2.59826 10.3574 3.16441 10.0407 3.9245Z" fill="white" fill-opacity="0.9"/>
</svg>
