<svg width="78" height="48" viewBox="0 0 78 48" fill="none" xmlns="http://www.w3.org/2000/svg">
<path fill-rule="evenodd" clip-rule="evenodd" d="M49.3737 0.0523104C49.2595 -0.0507552 49.0358 0.0048206 48.8206 0.163414C47.5826 1.07777 49.991 3.67446 51.3947 5.1879L51.3948 5.18796C51.7539 5.57517 52.0473 5.89147 52.197 6.09053C52.2281 6.13764 52.2942 6.12099 52.371 6.06633C52.4429 6.01681 52.4881 5.95282 52.495 5.89224C52.5116 5.82136 52.5103 5.75342 52.4896 5.70608C51.9391 3.67389 51.0501 1.45407 49.3737 0.0523104ZM57.669 1.28704C57.8481 1.38814 57.9483 1.48457 57.9977 1.59232C58.0713 1.73366 58.0325 1.83145 57.9088 1.88135C56.9928 2.31844 55.8272 3.94651 55.1116 4.94592L55.1116 4.94597L55.1115 4.946C54.9591 5.15886 54.8272 5.3432 54.7224 5.48143C54.5777 5.66254 54.244 5.5573 54.1936 5.25948C54.204 4.92274 55.5146 2.44558 56.246 1.77088C56.2671 1.7516 56.2891 1.73096 56.3122 1.70938C56.604 1.43615 57.0567 1.0123 57.669 1.28704ZM72.2876 6.0681C72.3019 6.02612 72.3019 5.95616 72.3019 5.9002C72.2031 5.89276 72.1042 5.88138 72.0075 5.87024C71.9222 5.86042 71.8386 5.85079 71.7581 5.84423C71.6865 5.84423 71.615 5.83024 71.5578 5.78826C71.4576 5.74628 71.4147 5.69032 71.4004 5.59237C71.4004 5.49443 71.4576 5.42447 71.5578 5.3825C71.6002 5.35135 71.6584 5.34331 71.7149 5.33552C71.7345 5.33281 71.7539 5.33013 71.7724 5.32652L71.7727 5.32649C71.9014 5.31252 72.0302 5.29854 72.1588 5.29854C72.5166 5.29854 72.8743 5.29854 73.2321 5.28455C73.3323 5.28455 73.4467 5.29854 73.5326 5.34052C73.7616 5.45246 73.7616 5.69032 73.547 5.80225C73.4754 5.84423 73.3895 5.85822 73.2893 5.87221C73.1724 5.87221 73.0435 5.88376 72.9029 5.89636L72.86 5.9002V6.01213C72.8743 6.55782 72.9029 7.11749 73.046 7.64919C73.0747 7.77511 73.0747 7.90105 73.0174 8.02697C72.9029 8.27883 72.6168 8.3208 72.4307 8.11093C72.3163 7.99911 72.2877 7.85937 72.259 7.7196L72.2589 7.71915C72.2161 7.15947 72.2161 6.61379 72.2876 6.0681ZM76.2516 6.57181C76.2516 6.57181 76.2373 6.55782 76.2373 6.54383C76.223 6.55776 76.2123 6.5717 76.2016 6.58564C76.1909 6.59969 76.1801 6.61373 76.1657 6.62777C76.1012 6.72591 76.0295 6.82405 75.9578 6.92219C75.8864 7.01994 75.815 7.11769 75.7507 7.21543L75.6791 7.28539C75.5504 7.41133 75.4216 7.42531 75.2642 7.31339C75.1068 7.17347 74.9779 7.00556 74.8492 6.83765C74.8205 6.79568 74.7919 6.75371 74.7633 6.69773C74.7334 6.80492 74.7174 6.89176 74.7008 6.98186C74.6935 7.02114 74.6862 7.06103 74.6775 7.10351L74.6763 7.10987C74.6337 7.34561 74.5911 7.58148 74.5343 7.83109C74.5201 7.90105 74.5057 7.97101 74.4628 8.05495C74.4198 8.16689 74.3197 8.20887 74.1765 8.19487C74.0621 8.18089 73.9762 8.11092 73.9476 7.99899C73.919 7.94301 73.9047 7.87305 73.919 7.81709C73.919 7.56523 73.9333 7.31339 73.962 7.06153C73.9906 6.83682 74.023 6.61212 74.0553 6.38741C74.0873 6.16438 74.1194 5.94134 74.148 5.7183C74.1524 5.70103 74.1554 5.68508 74.1584 5.66965C74.165 5.63509 74.1711 5.60308 74.1909 5.56439C74.2624 5.43846 74.3769 5.35451 74.5201 5.34052C74.6775 5.34052 74.7776 5.41048 74.8635 5.5364C74.8778 5.56439 74.8921 5.59237 74.9208 5.62036C75.0322 5.82148 75.1384 6.02762 75.2457 6.23577C75.3176 6.37517 75.3899 6.51547 75.4646 6.65576C75.4646 6.65576 75.4789 6.66975 75.4932 6.69773C75.5217 6.65576 75.536 6.61379 75.5504 6.55782C75.6314 6.40939 75.698 6.25396 75.7655 6.09648L75.7656 6.09625L75.7659 6.0955C75.7937 6.03063 75.8217 5.96542 75.8509 5.9002C75.9081 5.77427 75.9797 5.66233 76.0656 5.5504C76.1371 5.42447 76.266 5.34052 76.4377 5.3685C76.6094 5.38249 76.7095 5.48044 76.7525 5.62036C76.8241 5.84423 76.8955 6.08209 76.9528 6.33395C76.9967 6.54156 77.0294 6.75283 77.0624 6.96589L77.0624 6.96618L77.0625 6.96645L77.0625 6.96672C77.0939 7.16981 77.1256 7.37452 77.1675 7.57923C77.1961 7.71915 77.1818 7.84507 77.1245 7.97101C76.9958 8.22285 76.7095 8.25084 76.5235 8.01297C76.4377 7.91503 76.4234 7.80309 76.409 7.67717C76.3716 7.36026 76.3233 7.04335 76.2737 6.71718L76.2516 6.57181ZM43.1914 6.79179C43.1455 6.63256 43.1645 6.44098 43.264 6.17507C43.6693 5.34212 44.545 5.39972 45.1097 5.43687C45.1544 5.43981 45.1971 5.44262 45.2374 5.44485C46.6432 5.52718 50.3274 7.03719 50.6479 7.38988C50.8675 7.75407 50.6057 8.16026 50.2839 8.09276C50.0445 8.03636 49.7337 7.95437 49.3748 7.85968L49.3744 7.85956L49.3739 7.85942L49.3738 7.85941L49.3738 7.8594C47.6867 7.41426 44.9383 6.68909 43.5525 7.02413C43.3738 7.0792 43.2422 7.00831 43.1914 6.79179ZM13.321 24.4665C13.7228 24.1741 14.1596 23.9306 14.6218 23.7416C15.1054 23.6065 15.6209 23.6288 16.0903 23.8055C16.5596 23.9823 16.9575 24.3036 17.2234 24.7209C17.4614 25.1372 17.5544 25.6179 17.4887 26.0905C17.4231 26.5629 17.2022 27.0018 16.8592 27.341C16.5933 27.6159 16.2915 27.8553 15.9617 28.0532C15.1737 28.551 14.3819 29.0341 13.5884 29.5183L13.5883 29.5183L13.5882 29.5184C12.9016 29.9373 12.2138 30.357 11.5259 30.7877C11.2225 31.0201 10.9006 31.2285 10.5633 31.4109C10.0503 31.6611 9.46397 31.7281 8.90577 31.6003C8.34757 31.4727 7.85258 31.1582 7.50639 30.7114C7.2476 30.3951 7.02918 30.0492 6.85598 29.6812C6.43331 28.8126 6.00594 27.9451 5.5781 27.0767L5.57803 27.0766C4.58384 25.0586 3.58717 23.0357 2.64136 20.9816C2.03295 19.7424 1.53569 18.3219 1.05332 16.9439L1.01535 16.8354C0.801489 16.4252 0.759727 15.9497 0.898956 15.5098C1.03818 15.07 1.34742 14.7006 1.76088 14.4802C2.17434 14.2599 2.65941 14.206 3.11292 14.3299C3.56643 14.4538 3.95261 14.7459 4.18932 15.1438C4.9169 16.0892 5.56096 17.0934 6.11452 18.1455C6.88171 19.5346 7.62951 20.9236 8.37062 22.3003L8.37077 22.3006L8.37096 22.3009C8.98685 23.445 9.59812 24.5805 10.2121 25.7002C10.2908 25.8366 10.3777 25.9682 10.4722 26.0945C11.4905 25.6759 12.4482 25.1286 13.321 24.4665ZM16.5426 21.595C19.2483 26.3262 24.6336 27.2547 27.8466 23.5791C30.5263 20.6029 30.8515 15.4138 28.5621 11.3438C27.9345 10.1003 26.9211 9.08268 25.6665 8.43623C24.412 7.78978 22.9805 7.54764 21.5767 7.74441C20.4318 7.96327 19.3623 8.46209 18.4678 9.19434C14.2792 12.6919 14.6174 18.2372 16.5426 21.595ZM24.6076 12.5902C25.5197 13.1527 26.2044 14.0066 26.5458 15.0067L26.5068 15.0195C26.915 16.2014 26.9363 17.4783 26.5679 18.6727C26.1996 19.8671 25.4599 20.9196 24.4516 21.684C24.1066 21.9132 23.7148 22.0659 23.3032 22.1316C22.8916 22.1971 22.4704 22.174 22.0689 22.0637C21.6675 21.9535 21.2955 21.7588 20.979 21.4933C20.6625 21.2278 20.4093 20.8979 20.2368 20.5266C18.884 18.25 19.2743 14.4217 21.1344 12.8064C21.5998 12.3856 22.1992 12.1344 22.8318 12.095C23.4643 12.0556 24.0915 12.2305 24.6076 12.5902ZM40.9587 16.6094C40.6298 16.6785 40.2899 16.6827 39.9593 16.6215C39.6287 16.5603 39.3139 16.4351 39.0335 16.2533C38.7882 16.116 38.577 15.9274 38.4151 15.7008C38.2533 15.4743 38.1449 15.2155 38.0976 14.943C38.0503 14.6706 38.0655 14.3913 38.1417 14.1252C38.2181 13.8592 38.3539 13.613 38.5392 13.4043C38.8622 12.9849 39.3206 12.6847 39.84 12.5522C41.1964 12.1673 42.5926 11.9326 44.0026 11.8527C44.3124 11.8174 44.6263 11.8431 44.9258 11.928C45.2253 12.0131 45.5044 12.1557 45.7468 12.3477C45.9891 12.5396 46.1898 12.777 46.3371 13.0458C46.4842 13.3146 46.5751 13.6095 46.6042 13.9131C47.0107 15.4043 47.0552 16.9679 46.7343 18.4791C45.5636 23.363 41.5311 25.0418 37.0042 23.4774C35.7335 23.0591 34.6194 22.2798 33.8043 21.239C32.7171 19.9855 31.9462 18.5 31.5538 16.9019C31.2359 15.4788 31.2707 14.0022 31.6555 12.595C32.0402 11.1879 32.7635 9.89105 33.7652 8.8129C34.7158 7.64108 35.9496 6.71886 37.3555 6.12928C38.2438 5.65053 39.2834 5.51441 40.2693 5.74772C40.493 5.80824 40.696 5.92617 40.8573 6.08927C41.0187 6.25239 41.1324 6.45472 41.1869 6.67531C41.2413 6.89589 41.2343 7.1267 41.1668 7.34379C41.0992 7.56087 40.9735 7.75632 40.8027 7.90988C40.4778 8.19739 40.1249 8.45299 39.749 8.67299C38.5925 9.39307 37.5861 10.3209 36.7831 11.4075C36.2567 12.1106 35.8942 12.9179 35.7212 13.7727C35.5481 14.6274 35.5687 15.5088 35.7815 16.3551C36.0765 17.5088 36.7312 18.5444 37.6546 19.3184C40.5164 21.8622 44.2367 19.4074 43.5863 15.9353C43.1005 16.0524 42.6453 16.1729 42.2033 16.2899C41.7814 16.4015 41.3716 16.51 40.9587 16.6094ZM48.3475 18.4408C49.4012 23.7825 54.2142 26.3263 58.4418 23.7825C61.941 21.7603 63.8922 16.9145 63.0336 12.374C62.8308 11.0036 62.1931 9.73014 61.2106 8.73298C60.2281 7.73581 58.9503 7.06531 57.5573 6.81598C56.3979 6.67602 55.2211 6.82476 54.1362 7.24842C49.0369 9.28339 47.58 14.6252 48.3475 18.4408ZM58.8321 12.3358C59.5282 13.144 59.9105 14.1664 59.9118 15.2229C59.9184 16.4762 59.5246 17.7002 58.7853 18.724C58.0461 19.7478 56.9983 20.5203 55.7881 20.9336C55.3873 21.0452 54.9664 21.0699 54.5547 21.0059C54.1431 20.9419 53.7507 20.7907 53.4051 20.563C53.0593 20.3353 52.7687 20.0365 52.5535 19.6875C52.3383 19.3385 52.2036 18.9477 52.1589 18.5426C51.5735 15.9606 53.1866 12.4503 55.4759 11.4837C56.0499 11.224 56.698 11.167 57.3101 11.3224C57.9221 11.4778 58.46 11.836 58.8321 12.3358ZM67.3089 24.8511C67.2451 25.3166 66.9949 25.7382 66.6131 26.0233C66.2312 26.3082 65.7493 26.4333 65.2732 26.3709C64.7971 26.3085 64.3659 26.0637 64.0744 25.6904C63.7828 25.3172 63.6549 24.8459 63.7188 24.3804C63.7826 23.915 64.0329 23.4933 64.4147 23.2083C64.7965 22.9232 65.2784 22.7982 65.7545 22.8606C66.2306 22.923 66.6618 23.1677 66.9534 23.541C67.2449 23.9143 67.3729 24.3856 67.3089 24.8511ZM66.1772 7.69365C66.4247 7.32422 66.7876 7.04288 67.212 6.8916C67.6362 6.74033 68.0992 6.72722 68.5317 6.85423C68.9715 6.96181 69.36 7.21382 69.6324 7.56807C69.9047 7.92233 70.0442 8.35731 70.0277 8.80017C69.9703 9.51054 69.8617 10.2161 69.7025 10.9114C69.6053 11.4443 69.5088 11.9772 69.4123 12.5097L69.412 12.5113L69.4115 12.5141L69.4107 12.5181L69.4098 12.5234L69.4086 12.53L69.4083 12.5315C69.0801 14.3433 68.7524 16.1516 68.4017 17.9448C68.1936 18.8733 67.9204 19.7636 67.6212 20.7047C67.5171 20.999 67.3432 21.2648 67.1139 21.4806C66.9713 21.6429 66.7892 21.7674 66.5844 21.8426C66.3795 21.9178 66.1586 21.9413 65.942 21.9109C65.7255 21.8804 65.5202 21.7971 65.3453 21.6686C65.1704 21.5399 65.0316 21.3703 64.9416 21.1754C64.7869 20.8256 64.7029 20.4498 64.6944 20.0688C64.6944 18.4917 64.6944 16.9019 64.7984 15.312C64.9753 13.0432 65.3231 10.7901 65.8391 8.57123C65.8998 8.27396 66.0143 7.98968 66.1772 7.73181V7.69365ZM7.70452 36.1401C7.62947 35.7804 7.67159 35.4067 7.82517 35.0715C7.98081 34.7317 8.24287 34.4493 8.57346 34.2647C8.92292 34.0663 9.33315 33.9958 9.73091 34.0657C10.1204 34.1343 10.473 34.333 10.7287 34.6277C11.1225 34.9578 11.4547 35.3525 11.7103 35.794L11.7168 35.8059C12.5899 37.5005 13.4236 39.1944 14.2437 40.9002L14.246 40.905C14.7446 41.9952 15.1769 43.1099 15.5564 44.223C15.7956 44.8933 15.8451 45.6143 15.7 46.3097C15.6741 46.6666 15.5412 47.0083 15.3175 47.2918C15.0894 47.581 14.7776 47.7964 14.4227 47.9099C14.0677 48.0234 13.6861 48.0298 13.3273 47.9284C12.9753 47.8289 12.6615 47.6299 12.4249 47.3568C11.8676 46.86 11.4472 46.2332 11.2029 45.5355C11.1348 45.3392 11.0682 45.1434 11.0018 44.9482L11.0011 44.946C10.8371 44.4637 10.6742 43.9846 10.4908 43.5095C9.84187 41.8344 9.35537 40.677 8.96764 39.7713C8.89533 39.6023 8.82624 39.4417 8.76012 39.2879C8.4726 38.6194 8.23941 38.077 8.03103 37.5285C7.86412 37.0806 7.75445 36.6142 7.70452 36.1401ZM20.3516 30.8712C19.0657 30.5455 17.7226 30.4981 16.4162 30.7322C15.4042 30.8296 14.409 31.0578 13.7179 31.5099C13.3664 31.74 13.0822 32.0354 12.9242 32.4109C12.7652 32.7884 12.7449 33.2202 12.8752 33.7013C13.1127 34.5814 13.421 35.437 13.7283 36.29L13.7296 36.2934L13.7794 36.4317L13.7806 36.4348C14.7073 38.916 15.6427 41.3887 16.5867 43.853C16.6967 44.2413 16.8524 44.616 17.0505 44.9693L17.0542 44.9758C17.3159 45.4148 17.6516 45.8074 18.0471 46.1372C18.2449 46.3185 18.4894 46.444 18.7546 46.5001C19.0225 46.5566 19.301 46.5402 19.5598 46.4525C19.8188 46.3649 20.0481 46.2094 20.2229 46.003C20.3948 45.8 20.5074 45.5554 20.5487 45.2952C20.7194 44.588 20.6647 43.8468 20.392 43.1708C20.3073 42.9444 20.2407 42.7129 20.1707 42.4694L20.1698 42.4662L20.1638 42.4455C20.1423 42.3705 20.1204 42.2944 20.0974 42.217C22.2582 41.3912 24.5573 40.2808 25.3658 37.6975C25.6824 36.8048 25.7087 35.8382 25.4413 34.9301C25.1735 34.021 24.6243 33.2153 23.8691 32.6238C22.8414 31.7958 21.6409 31.1976 20.3516 30.8712ZM16.7871 34.0397C16.8296 34.0277 16.8725 34.0166 16.9155 34.0062C18.3222 33.79 19.7614 34.0781 20.9682 34.8173C21.5 35.1789 21.7179 35.5807 21.7553 35.9673C21.7939 36.3654 21.6459 36.7968 21.3485 37.2114C20.7866 37.9947 19.7611 38.6216 18.8348 38.7385C18.1595 37.218 17.4738 35.6359 16.7871 34.0397ZM33.8377 27.7632C32.3533 27.277 30.4563 27.3965 28.9249 28.088C27.3853 28.7833 26.1708 30.0823 26.1684 31.9677C26.1377 32.7414 26.3637 33.504 26.8129 34.1418C27.2603 34.777 27.9053 35.2542 28.6518 35.5027C28.9944 35.6547 29.3504 35.7681 29.7155 35.8843L29.7156 35.8843L29.7158 35.8844L29.7167 35.8847L29.7329 35.8899C29.8613 35.9308 29.991 35.9722 30.1217 36.0157C30.3193 36.0817 30.5209 36.1416 30.7169 36.1998L30.7466 36.2086L30.7475 36.2089L30.7496 36.2095C30.812 36.228 30.8737 36.2463 30.9345 36.2647C31.1995 36.3447 31.4542 36.427 31.6999 36.529C32.6397 36.9389 33.0674 37.4291 33.2097 37.8667C33.3511 38.3011 33.2319 38.7486 32.9352 39.1253C32.6365 39.5043 32.1721 39.7901 31.6783 39.8819C31.1915 39.9725 30.6839 39.8747 30.2643 39.4995L30.2599 39.4958C30.0227 39.2923 29.7585 39.1211 29.4744 38.9869C29.19 38.8335 28.8659 38.7647 28.542 38.789C28.217 38.8135 27.9066 38.9306 27.649 39.1259C27.4052 39.2982 27.2162 39.5346 27.1045 39.8077C26.9922 40.0825 26.9624 40.383 27.0189 40.6737C27.0803 40.9958 27.2189 41.2994 27.4248 41.5579L27.4418 41.5758C28.0943 42.2617 28.9189 42.7687 29.8338 43.0465C30.7463 43.3235 31.717 43.3629 32.6497 43.1607C35.213 42.7323 36.9176 40.9162 37.2687 38.9206C37.6237 36.9026 36.5868 34.7571 33.8022 33.7212L33.7999 33.7203C33.197 33.5016 32.5735 33.3438 31.9735 33.1919L31.9714 33.1914L31.9529 33.1867C31.742 33.1333 31.5341 33.0807 31.3311 33.0262C30.5715 32.8191 30.1962 32.5286 30.0431 32.2698C29.9002 32.028 29.9215 31.7623 30.0931 31.499C30.4529 30.9469 31.4378 30.4976 32.4821 30.7688L32.4906 30.7706C32.6253 30.8014 32.7555 30.8486 32.8782 30.9114L32.8953 30.9202L32.9135 30.9266C33.1532 31.0114 33.4101 31.0385 33.6627 31.0055C33.9153 30.9727 34.1561 30.8807 34.3646 30.7377C34.5732 30.5946 34.7435 30.4045 34.8611 30.1835C34.9766 29.9664 35.0381 29.7258 35.0402 29.4812C35.0738 29.1044 34.9733 28.7275 34.7553 28.4147C34.5359 28.1 34.2116 27.8697 33.8377 27.7632ZM48.3402 27.8871C48.0432 27.7453 47.7149 27.678 47.3848 27.6912C47.0545 27.7045 46.7329 27.7979 46.449 27.9632C46.1668 28.1272 45.9305 28.357 45.7612 28.632C45.6059 28.8636 45.4985 29.1226 45.4449 29.3945C45.3913 29.6663 45.3927 29.9456 45.4486 30.2167C45.5039 30.5651 45.5652 30.9039 45.6258 31.2381C45.726 31.7911 45.8236 32.3316 45.8879 32.8827L45.8903 32.8967C46.0368 33.761 46.1135 34.6352 46.1204 35.5112L46.1211 35.5236C46.1711 36.4696 45.8415 37.3972 45.2027 38.1096L45.1926 38.1223C44.9848 38.3827 44.7069 38.5814 44.39 38.6963C44.0732 38.8112 43.73 38.8376 43.3987 38.7725C43.0674 38.7075 42.7612 38.5537 42.5142 38.3282C42.2672 38.1027 42.0891 37.8136 42.0001 37.495C41.8103 36.8233 41.7005 36.1324 41.6726 35.4362L41.9968 30.3893C42.0016 30.3235 42.007 30.2558 42.0126 30.1875L42.0131 30.1806C42.0253 30.0296 42.0376 29.876 42.0428 29.7325C42.0504 29.5183 42.0439 29.2979 41.9928 29.0893C41.9406 28.8761 41.8412 28.6733 41.6649 28.5007C41.4904 28.3297 41.2547 28.2036 40.9582 28.1177C40.422 27.966 39.9687 27.9708 39.5909 28.1276C39.2129 28.2843 38.9539 28.5754 38.7706 28.9116C38.5888 29.245 38.4719 29.6397 38.3836 30.035C38.318 30.3284 38.2653 30.6363 38.2152 30.9295C38.1979 31.0305 38.181 31.1296 38.1639 31.226L38.1634 31.2288C37.8955 32.8364 37.8157 34.4686 37.9257 36.0938C37.9462 36.9721 38.1335 37.8391 38.4783 38.6504C38.8672 39.6972 39.5716 40.6042 40.4985 41.2516C41.4274 41.9004 42.5359 42.2579 43.6772 42.2768C44.8185 42.2956 45.9388 41.975 46.8896 41.3575C47.8389 40.7408 48.5746 39.8569 48.9994 38.8228C49.5936 37.5056 49.8727 36.073 49.8151 34.6343C49.7802 33.5851 49.7218 32.5279 49.6638 31.476V31.476L49.6636 31.4725C49.635 30.956 49.6065 30.4405 49.581 29.9282C49.5681 29.4145 49.3949 28.9169 49.0844 28.5023C48.8923 28.2401 48.6366 28.0287 48.3402 27.8871ZM58.82 35.838C58.8302 35.8254 58.8403 35.813 58.8502 35.8007C59.1284 35.4561 59.408 35.1065 59.6884 34.7559L59.7355 34.697C60.2226 34.0877 60.7128 33.4745 61.2065 32.8731L61.2095 32.8695C61.6617 32.337 62.1491 31.8342 62.6687 31.3644C62.9593 31.0448 63.3467 30.8243 63.7747 30.7348C64.2055 30.6447 64.6544 30.6924 65.0554 30.8706C65.4409 31.0243 65.7671 31.293 65.9874 31.6386C66.2069 31.983 66.3099 32.386 66.2822 32.7905C66.2864 34.0706 66.2252 35.3499 66.0987 36.624L66.0982 36.6276C65.967 37.7896 65.8116 38.9743 65.6562 40.1594L65.6554 40.1652C65.5203 41.195 65.3852 42.2251 65.2656 43.2414C65.1862 43.9611 64.8971 44.6432 64.4326 45.2067C64.233 45.5051 63.9474 45.7392 63.6116 45.8791C63.2709 46.0213 62.8943 46.0599 62.5308 45.9902C62.1673 45.9204 61.8337 45.7454 61.5732 45.4878C61.3149 45.2323 61.1404 44.9075 61.0719 44.5546C60.9137 43.9275 60.9135 43.2723 61.0712 42.645C61.3123 41.2298 61.5392 39.8149 61.7679 38.3881L61.9344 37.3501L59.1174 39.6701L58.7544 39.9357C58.5711 40.0719 58.3589 40.168 58.134 40.2162C57.9089 40.2645 57.6756 40.2643 57.4506 40.2156C57.2255 40.1668 57.014 40.0708 56.8307 39.934C56.6496 39.7988 56.5004 39.6271 56.3933 39.4307C55.8272 38.5032 55.4142 37.4943 55.1695 36.441C55.1526 36.3884 55.1362 36.336 55.1202 36.2822C54.8867 36.7184 54.6815 37.119 54.4703 37.5663C53.9245 38.7227 53.3763 39.884 52.8026 41.0315C52.6082 41.4165 52.3698 41.78 52.0927 42.1133C51.8757 42.3839 51.5729 42.5763 51.2319 42.6604C50.8901 42.7446 50.5293 42.7153 50.2066 42.5769C49.9021 42.4481 49.6465 42.2293 49.4759 41.9511C49.3086 41.6785 49.231 41.3623 49.2535 41.0454C49.235 40.6914 49.2889 40.3373 49.4124 40.0039C49.4813 39.7937 49.5496 39.5829 49.6179 39.3721C49.9599 38.3156 50.3031 37.2559 50.7188 36.2502L50.7209 36.2452C51.3971 34.6965 52.0935 33.1599 52.7853 31.6335L52.7885 31.6265L52.7933 31.6159C53.0708 31.0036 53.3476 30.3929 53.6219 29.7837C53.7428 29.501 53.9042 29.2363 54.101 28.9977C54.3377 28.6868 54.6629 28.451 55.036 28.3197C55.41 28.1882 55.8155 28.1677 56.2014 28.2607C56.5879 28.3463 56.9393 28.5433 57.2098 28.8264C57.4811 29.1102 57.6587 29.4675 57.7194 29.8514L57.7228 29.8727V29.8941C57.7228 30.08 57.7283 30.1672 57.7843 30.2561L57.814 30.3033L57.8231 30.358C57.9044 30.848 57.9852 31.3395 58.0656 31.8289C58.2898 33.1928 58.5137 34.5547 58.7552 35.9171C58.7775 35.8901 58.7991 35.8637 58.82 35.838Z" fill="#626981"/>
</svg>
