<svg width="104" height="40" viewBox="0 0 104 40" fill="none" xmlns="http://www.w3.org/2000/svg">
<path fill-rule="evenodd" clip-rule="evenodd" d="M40.1518 20C40.1518 8.9543 31.1975 0 20.1518 0C9.1061 0 0.151794 8.9543 0.151794 20C0.151794 31.0457 9.1061 40 20.1518 40C31.1975 40 40.1518 31.0457 40.1518 20ZM13.2882 6.7174C14.9747 3.65108 17.1473 1.81769 19.4289 1.49659V8.68187C16.7852 8.73442 14.2661 9.07417 11.9729 9.65044C12.3576 8.58946 12.799 7.60683 13.2882 6.7174ZM12.0214 6.02065C11.3461 7.2484 10.7609 8.62958 10.2826 10.1308C8.78137 10.6091 7.4002 11.1943 6.17245 11.8696C4.65239 12.7056 3.33974 13.6978 2.33157 14.8157C4.09702 8.73679 8.88859 3.94523 14.9675 2.17977C13.8496 3.18795 12.8574 4.50059 12.0214 6.02065ZM8.83367 19.2771C8.88622 16.6334 9.22596 14.1143 9.80219 11.8211C8.74126 12.2058 7.75863 12.6472 6.8692 13.1364C3.80288 14.8228 1.96949 16.9954 1.64838 19.2771H8.83367ZM11.442 11.2902C10.7548 13.6834 10.3395 16.392 10.2798 19.2771H13.4019C16.1574 18.2012 18.3526 16.0062 19.4289 13.2508V10.1279C16.5439 10.1876 13.8352 10.603 11.442 11.2902ZM1.64838 20.7229H8.83367C8.88622 23.3666 9.22596 25.8857 9.80219 28.1789C8.74126 27.7942 7.75863 27.3528 6.8692 26.8636C3.80288 25.1771 1.96949 23.0046 1.64838 20.7229ZM10.2798 20.7229C10.3395 23.608 10.7548 26.3166 11.442 28.7098C13.8352 29.397 16.5439 29.8124 19.4289 29.8721V26.7492C18.3527 23.9938 16.1574 21.7988 13.4019 20.7229H10.2798ZM6.17245 28.1304C7.4002 28.8057 8.78137 29.3909 10.2826 29.8692C10.7609 31.3704 11.3461 32.7516 12.0214 33.9793C12.8574 35.4994 13.8496 36.812 14.9675 37.8202C8.88859 36.0548 4.09702 31.2632 2.33157 25.1843C3.33974 26.3022 4.65239 27.2944 6.17245 28.1304ZM13.2882 33.2826C14.9747 36.3489 17.1473 38.1823 19.4289 38.5034V31.3181C16.7852 31.2656 14.2661 30.9258 11.9729 30.3496C12.3576 31.4105 12.799 32.3932 13.2882 33.2826ZM28.2823 33.9793C27.4462 35.4994 26.454 36.812 25.3361 37.8202C31.415 36.0548 36.2066 31.2632 37.972 25.1843C36.9639 26.3022 35.6512 27.2944 34.1312 28.1304C32.9034 28.8057 31.5222 29.3909 30.021 29.8692C29.5427 31.3704 28.9575 32.7516 28.2823 33.9793ZM27.0154 33.2826C27.5046 32.3932 27.946 31.4105 28.3307 30.3496C26.0375 30.9258 23.5184 31.2656 20.8747 31.3181V38.5034C23.1564 38.1823 25.329 36.3489 27.0154 33.2826ZM33.4344 26.8636C32.545 27.3528 31.5623 27.7942 30.5014 28.1789C31.0776 25.8857 31.4174 23.3666 31.4699 20.7229H38.6552C38.3341 23.0046 36.5007 25.1771 33.4344 26.8636ZM28.8616 28.7098C29.5488 26.3166 29.9642 23.608 30.0239 20.7229H26.9026C24.1463 21.7991 21.9506 23.9951 20.8747 26.7515V29.8721C23.7598 29.8124 26.4684 29.397 28.8616 28.7098ZM38.6552 19.2771H31.4699C31.4174 16.6334 31.0776 14.1143 30.5014 11.8211C31.5623 12.2058 32.545 12.6472 33.4344 13.1364C36.5007 14.8228 38.3341 16.9954 38.6552 19.2771ZM30.0239 19.2771C29.9642 16.392 29.5488 13.6834 28.8616 11.2902C26.4684 10.603 23.7598 10.1876 20.8747 10.1279V13.2485C21.9506 16.0049 24.1463 18.2009 26.9026 19.2771H30.0239ZM34.1312 11.8696C32.9034 11.1943 31.5222 10.6091 30.021 10.1308C29.5427 8.62958 28.9575 7.2484 28.2823 6.02065C27.4462 4.50059 26.454 3.18795 25.3361 2.17977C31.415 3.94523 36.2066 8.73679 37.972 14.8157C36.9639 13.6978 35.6512 12.7056 34.1312 11.8696ZM27.0154 6.7174C25.329 3.65108 23.1564 1.81769 20.8747 1.49659V8.68187C23.5184 8.73442 26.0375 9.07417 28.3307 9.65044C27.946 8.58946 27.5046 7.60684 27.0154 6.7174ZM50.5408 17.572H47.8064V3.19629H50.5408V17.572ZM50.5006 35.2381H47.7662V24.9238H50.5006V35.2381ZM50.5006 23.3153H47.7662V20.8624H50.5006V23.3153ZM54.9969 38.6159H52.2625V24.9238H54.8964V26.2105H54.9567C55.6202 25.3058 56.5853 24.6423 57.9927 24.6423C60.7271 24.6423 62.4763 26.874 62.4763 30.091C62.4763 33.4286 60.6668 35.5397 58.0128 35.5397C56.5652 35.5397 55.6202 34.9566 55.0372 34.072H54.9969V38.6159ZM54.9366 30.1714C54.9366 32.0413 55.8012 33.2677 57.4298 33.2677C58.8171 33.2677 59.7017 32.1217 59.7017 30.1714C59.7017 28.2211 59.0181 26.8539 57.3292 26.8539C55.6202 26.8539 54.9366 28.3217 54.9366 30.1714ZM67.9309 35.5397C70.5044 35.5397 72.2737 34.2931 72.2737 32.2222C72.2737 29.8095 70.3637 29.327 68.6346 28.9651C68.398 28.9165 68.164 28.8736 67.9379 28.8322C66.7615 28.6167 65.7996 28.4404 65.7996 27.6984C65.7996 26.9545 66.5033 26.5523 67.569 26.5523C68.7351 26.5523 69.4388 26.9545 69.5594 28.0603H72.0325C71.8314 25.9894 70.3235 24.6423 67.6092 24.6423C65.2568 24.6423 63.407 25.7079 63.407 27.9396C63.407 30.1915 65.2166 30.6942 67.0663 31.0561C67.2433 31.0915 67.4188 31.1241 67.5902 31.1559C68.7818 31.3768 69.7806 31.5621 69.7806 32.4233C69.7806 33.1471 69.097 33.6095 67.8906 33.6095C66.6642 33.6095 65.8197 33.0868 65.6388 31.9005H63.1054C63.2663 34.0921 64.9351 35.5397 67.9309 35.5397ZM82.6554 24.9238V35.2381H80.0216V34.0317H79.9613C79.2575 34.9767 78.4533 35.5196 77.0057 35.5196C74.7136 35.5196 73.4268 34.0518 73.4268 31.8V24.9238H76.1411V31.3375C76.1411 32.5439 76.684 33.2074 77.8501 33.2074C79.1369 33.2074 79.921 32.2423 79.921 30.8751V24.9238H82.6554ZM84.4241 35.2381H87.1586V29.2465C87.1586 27.8793 87.9025 26.9947 89.0083 26.9947C90.0136 26.9947 90.5967 27.5978 90.5967 28.764V35.2381H93.3311V29.2465C93.3311 27.8793 94.0348 26.9947 95.1808 26.9947C96.1861 26.9947 96.7692 27.5978 96.7692 28.764V35.2381H99.5036V28.3016C99.5036 26.0497 98.2771 24.6423 96.1057 24.6423C94.7988 24.6423 93.7131 25.3259 93.0094 26.4518H92.9692C92.4665 25.3661 91.421 24.6423 90.1141 24.6423C88.6866 24.6423 87.6813 25.3661 87.1183 26.3111H87.058V24.9238H84.4241V35.2381ZM57.2268 17.8736C60.4237 17.8736 62.6152 15.5011 62.6152 12.4249C62.6152 9.34869 60.4237 6.9762 57.2268 6.9762C54.03 6.9762 51.8384 9.34869 51.8384 12.4249C51.8384 15.5011 54.03 17.8736 57.2268 17.8736ZM57.2268 15.7826C55.5379 15.7826 54.6131 14.4355 54.6131 12.4249C54.6131 10.4143 55.5379 9.04711 57.2268 9.04711C58.8956 9.04711 59.8406 10.4143 59.8406 12.4249C59.8406 14.4355 58.8956 15.7826 57.2268 15.7826ZM72.1498 19.9244C71.2853 20.7287 69.9583 21.0906 68.4302 21.0906C65.6154 21.0906 63.8863 19.8842 63.6048 17.8736H66.3191C66.5403 18.517 67.1233 19.0196 68.39 19.0196C69.9382 19.0196 70.6821 18.2757 70.6821 16.8683V15.7424H70.6218C70.0186 16.426 69.2345 16.9487 67.9276 16.9487C65.6355 16.9487 63.3836 15.1392 63.3836 12.0228C63.3836 8.94658 65.2334 6.9762 67.8471 6.9762C69.1339 6.9762 70.0789 7.47884 70.7022 8.3434H70.7424V7.25768H73.3763V16.7879C73.3763 18.2355 72.9138 19.2207 72.1498 19.9244ZM66.0577 11.9826C66.0577 13.7318 66.9826 14.7572 68.39 14.7572C70.1191 14.7572 70.8228 13.4905 70.8228 11.9625C70.8228 10.4545 70.0186 9.16774 68.3699 9.16774C66.9826 9.16774 66.0577 10.2535 66.0577 11.9826ZM80.0227 17.8736C83.2195 17.8736 85.4111 15.5011 85.4111 12.4249C85.4111 9.34869 83.2195 6.9762 80.0227 6.9762C76.8259 6.9762 74.6343 9.34869 74.6343 12.4249C74.6343 15.5011 76.8259 17.8736 80.0227 17.8736ZM80.0227 15.7826C78.3338 15.7826 77.4089 14.4355 77.4089 12.4249C77.4089 10.4143 78.3338 9.04711 80.0227 9.04711C81.6915 9.04711 82.6365 10.4143 82.6365 12.4249C82.6365 14.4355 81.6915 15.7826 80.0227 15.7826ZM99.6302 13.6313H87.8081V11.2789H99.6302V13.6313ZM100.497 23.1717C100.497 22.709 100.872 22.3339 101.335 22.3339H103.01C103.473 22.3339 103.848 22.709 103.848 23.1717C103.848 23.6343 103.473 24.0094 103.01 24.0094H101.335C100.872 24.0094 100.497 23.6343 100.497 23.1717Z" fill="#626981"/>
</svg>
