<svg width="126" height="40" viewBox="0 0 126 40" fill="none" xmlns="http://www.w3.org/2000/svg">
<path d="M119.383 2.14894C119.383 0.965938 120.342 0.00593848 121.525 0.00593848H122.954C123.523 0.00593848 124.068 0.231718 124.47 0.633609C124.872 1.0355 125.097 1.58058 125.097 2.14894C125.097 2.7173 124.872 3.26238 124.47 3.66427C124.068 4.06616 123.523 4.29194 122.954 4.29194H121.525C121.244 4.29194 120.965 4.2365 120.705 4.12879C120.445 4.02108 120.209 3.86322 120.01 3.66421C119.811 3.4652 119.654 3.22895 119.546 2.96895C119.438 2.70896 119.383 2.43031 119.383 2.14894ZM59.3923 14.2899C59.3923 22.1779 52.9983 28.5729 45.1093 28.5729C37.2213 28.5729 30.8263 22.1779 30.8263 14.2899C30.8263 6.39994 37.2213 0.00693848 45.1093 0.00693848C52.9983 0.00693848 59.3923 6.39994 59.3923 14.2899ZM28.0403 14.2189C28.8303 14.2189 29.4763 14.8589 29.3973 15.6449C29.1273 18.3348 28.0995 20.8927 26.4334 23.0216C24.7673 25.1504 22.5312 26.7627 19.985 27.6711C17.4389 28.5794 14.6872 28.7466 12.0498 28.153C9.41244 27.5595 6.99765 26.2297 5.08611 24.3181C3.17456 22.4066 1.84475 19.9918 1.25121 17.3544C0.657685 14.7171 0.824811 11.9654 1.73317 9.41924C2.64153 6.87308 4.25382 4.63699 6.38267 2.97085C8.51151 1.3047 11.0695 0.276913 13.7593 0.00693848C14.5443 -0.0730615 15.1853 0.574939 15.1853 1.36294V12.7899C15.1853 13.5799 15.8253 14.2189 16.6143 14.2189H28.0403ZM79.3893 31.4299C80.5258 31.4299 81.6157 31.8814 82.4193 32.685C83.2229 33.4886 83.6743 34.5785 83.6743 35.7149C83.6743 36.8514 83.2229 37.9413 82.4193 38.7449C81.6157 39.5485 80.5258 39.9999 79.3893 39.9999H72.2483C71.1119 39.9999 70.0219 39.5485 69.2184 38.7449C68.4148 37.9413 67.9633 36.8514 67.9633 35.7149C67.9633 34.5785 68.4148 33.4886 69.2184 32.685C70.0219 31.8814 71.1119 31.4299 72.2483 31.4299H79.3893ZM75.1043 28.5729C82.9933 28.5729 89.3883 22.1779 89.3883 14.2899C89.3917 11.8669 88.7759 9.48315 87.5993 7.36494L89.9593 5.00494C90.2311 4.73297 90.4468 4.41012 90.5938 4.05483C90.7409 3.69954 90.8165 3.31876 90.8164 2.93423C90.8163 2.5497 90.7405 2.16896 90.5933 1.81374C90.446 1.45852 90.2303 1.13577 89.9583 0.863938C89.6863 0.592102 89.3635 0.376496 89.0082 0.229429C88.6529 0.0823627 88.2721 0.00671637 87.8876 0.00680924C87.5031 0.0069021 87.1223 0.0827323 86.7671 0.22997C86.4119 0.377208 86.0891 0.592971 85.8173 0.864938L83.7573 2.92494C81.2721 1.02684 78.2305 0.000906653 75.1033 0.00593848C67.2163 0.00693848 60.8223 6.39994 60.8223 14.2899C60.8223 22.1779 67.2163 28.5729 75.1043 28.5729ZM119.383 14.2899C119.383 22.1779 112.988 28.5729 105.099 28.5729C97.2113 28.5729 90.8163 22.1779 90.8163 14.2899C90.8163 6.39994 97.2113 0.00693848 105.099 0.00693848C112.988 0.00693848 119.383 6.40094 119.383 14.2899Z" fill="#626981"/>
</svg>
