<svg width="164" height="36" viewBox="0 0 164 36" fill="none" xmlns="http://www.w3.org/2000/svg">
<path fill-rule="evenodd" clip-rule="evenodd" d="M52.0086 2.64789C52.0086 1.42794 53.0084 0.438965 54.2417 0.438965H58.132C59.0098 0.438965 59.8606 0.739871 60.5393 1.29046L61.7227 2.25042L61.7523 2.27712C61.7796 2.268 61.8069 2.2591 61.8343 2.25042C63.9694 1.57398 66.5598 1.44533 69.2037 1.44533C71.8476 1.44533 74.438 1.57398 76.5731 2.25042C76.6005 2.2591 76.6278 2.268 76.6551 2.27712L76.6847 2.25042L77.8681 1.29046C78.5468 0.739871 79.3976 0.438965 80.2754 0.438965H84.1656C85.399 0.438965 86.3988 1.42794 86.3988 2.64789V4.01341C86.3988 5.06993 85.9489 6.07757 85.1593 6.78914L84.2046 7.64962C83.7386 8.06969 83.1792 8.37541 82.5716 8.54208L82.3457 8.60404C83.2304 10.692 83.7191 12.9238 83.7191 14.7292C83.7191 21.9919 79.1761 25.1286 75.1733 27.8923L75.1731 27.8925C72.0209 30.0689 69.2037 32.0141 69.2037 35.561C69.2037 32.0141 66.3865 30.0689 63.2343 27.8925L63.2341 27.8923C59.2313 25.1286 54.6883 21.9919 54.6883 14.7292C54.6883 12.9238 55.177 10.692 56.0617 8.60404L55.8358 8.54208C55.2282 8.37541 54.6688 8.06969 54.2028 7.64962L53.2481 6.78914C52.4585 6.07757 52.0086 5.06993 52.0086 4.01341V2.64789ZM72.1068 20.6668C72.1068 21.0138 71.9538 21.3465 71.6816 21.5919C71.4094 21.8372 71.0402 21.9751 70.6552 21.9751C70.3229 21.9751 70.0022 21.8723 69.7456 21.6863C70.1824 22.8427 71.3 23.9384 73 22.1763C74.5008 20.539 72.9333 17.0858 71.4062 15.0366C70.8972 14.3535 70.0616 14.0248 69.2037 14.0248C68.3458 14.0248 67.5102 14.3535 67.0012 15.0366C65.4741 17.0858 63.9066 20.539 65.4074 22.1763C67.1074 23.9384 68.225 22.8427 68.6618 21.6863C68.4052 21.8723 68.0845 21.9751 67.7522 21.9751C67.3672 21.9751 66.998 21.8372 66.7258 21.5919C66.4536 21.3465 66.3006 21.0138 66.3006 20.6668H72.1068ZM63.645 10.4445H59.6013L62.7882 12.9686C63.4894 13.5239 64.5145 13.3464 64.9484 12.5944C65.4963 11.6448 64.7686 10.4445 63.645 10.4445ZM74.7624 10.4445H78.8061L75.6193 12.9686C74.918 13.5239 73.8929 13.3464 73.459 12.5944C72.9111 11.6448 73.6388 10.4445 74.7624 10.4445ZM91.2159 25.3169H94.7984V11.8038H91.2159V25.3169ZM91.2159 9.69646H94.7984V6.48279H91.2159V9.69646ZM100.689 29.7424H97.1068V11.8038H100.558V13.4897H100.637C101.506 12.3043 102.77 11.4351 104.614 11.4351C108.197 11.4351 110.488 14.359 110.488 18.5736C110.488 22.9463 108.118 25.7121 104.64 25.7121C102.744 25.7121 101.506 24.9482 100.742 23.7892H100.689V29.7424ZM100.61 18.679C100.61 21.1287 101.743 22.7355 103.877 22.7355C105.694 22.7355 106.853 21.2341 106.853 18.679C106.853 16.1238 105.958 14.3326 103.745 14.3326C101.506 14.3326 100.61 16.2555 100.61 18.679ZM117.635 25.7121C121.006 25.7121 123.324 24.079 123.324 21.3658C123.324 18.2048 120.822 17.5726 118.557 17.0985C118.247 17.0348 117.94 16.9786 117.644 16.9244L117.644 16.9243C116.103 16.642 114.842 16.4111 114.842 15.439C114.842 14.4643 115.764 13.9375 117.161 13.9375C118.688 13.9375 119.61 14.4643 119.768 15.9131H123.008C122.745 13.1999 120.769 11.4351 117.213 11.4351C114.131 11.4351 111.708 12.8312 111.708 15.7551C111.708 18.7053 114.079 19.3638 116.502 19.838C116.734 19.8844 116.964 19.9271 117.189 19.9688C118.75 20.2583 120.058 20.5009 120.058 21.6292C120.058 22.5775 119.162 23.1834 117.582 23.1834C115.975 23.1834 114.869 22.4985 114.632 20.9443H111.313C111.523 23.8155 113.71 25.7121 117.635 25.7121ZM136.926 11.8038V25.317H133.476V23.7365H133.397C132.475 24.9746 131.421 25.6858 129.524 25.6858C126.521 25.6858 124.836 23.7629 124.836 20.8126V11.8038H128.392V20.2068C128.392 21.7872 129.103 22.6565 130.631 22.6565C132.317 22.6565 133.344 21.3921 133.344 19.6009V11.8038H136.926ZM139.243 25.317H142.826V17.4673C142.826 15.676 143.801 14.517 145.249 14.517C146.566 14.517 147.33 15.3073 147.33 16.8351V25.317H150.913V17.4673C150.913 15.676 151.835 14.517 153.336 14.517C154.653 14.517 155.417 15.3073 155.417 16.8351V25.317H159V16.2292C159 13.279 157.393 11.4351 154.548 11.4351C152.836 11.4351 151.413 12.3307 150.491 13.8058H150.439C149.78 12.3834 148.41 11.4351 146.698 11.4351C144.828 11.4351 143.511 12.3834 142.773 13.6214H142.694V11.8038H139.243V25.317ZM4.35417 25.3169H0.771729V6.48279H4.35417V25.3169ZM13.1138 25.7121C17.3021 25.7121 20.1733 22.6038 20.1733 18.5736C20.1733 14.5434 17.3021 11.4351 13.1138 11.4351C8.92543 11.4351 6.05421 14.5434 6.05421 18.5736C6.05421 22.6038 8.92543 25.7121 13.1138 25.7121ZM13.1138 22.9726C10.9011 22.9726 9.68938 21.2077 9.68938 18.5736C9.68938 15.9394 10.9011 14.1482 13.1138 14.1482C15.3001 14.1482 16.5382 15.9394 16.5382 18.5736C16.5382 21.2077 15.3001 22.9726 13.1138 22.9726ZM32.6648 28.399C31.5322 29.4526 29.7936 29.9268 27.7917 29.9268C24.1039 29.9268 21.8385 28.3463 21.4697 25.7121H25.0258C25.3156 26.5551 26.0795 27.2136 27.739 27.2136C29.7673 27.2136 30.7419 26.239 30.7419 24.3951V22.9199H30.6629C29.8726 23.8155 28.8453 24.5004 27.1331 24.5004C24.1302 24.5004 21.18 22.1297 21.18 18.0468C21.18 14.0165 23.6034 11.4351 27.0278 11.4351C28.7136 11.4351 29.9517 12.0936 30.7683 13.2263H30.8209V11.8038H34.2717V24.2897C34.2717 26.1863 33.6658 27.477 32.6648 28.399ZM24.6834 17.9941C24.6834 20.2858 25.8951 21.6292 27.739 21.6292C30.0044 21.6292 30.9263 19.9697 30.9263 17.9677C30.9263 15.9921 29.8726 14.3063 27.7126 14.3063C25.8951 14.3063 24.6834 15.7287 24.6834 17.9941ZM42.9794 25.7121C47.1677 25.7121 50.0389 22.6038 50.0389 18.5736C50.0389 14.5434 47.1677 11.4351 42.9794 11.4351C38.7911 11.4351 35.9199 14.5434 35.9199 18.5736C35.9199 22.6038 38.7911 25.7121 42.9794 25.7121ZM42.9794 22.9726C40.7667 22.9726 39.555 21.2077 39.555 18.5736C39.555 15.9394 40.7667 14.1482 42.9794 14.1482C45.1657 14.1482 46.4038 15.9394 46.4038 18.5736C46.4038 21.2077 45.1657 22.9726 42.9794 22.9726ZM159.936 7.75598C159.329 7.75598 158.838 8.24737 158.838 8.85354C158.838 9.45967 159.329 9.95111 159.936 9.95111H162.131C162.737 9.95111 163.228 9.45967 163.228 8.85354C163.228 8.24737 162.737 7.75598 162.131 7.75598H159.936Z" fill="#626981"/>
</svg>
