<svg width="156" height="32" viewBox="0 0 156 32" fill="none" xmlns="http://www.w3.org/2000/svg">
<path fill-rule="evenodd" clip-rule="evenodd" d="M17.3195 0C8.20682 0 0.819519 7.16344 0.819519 16C9.93222 16 17.3195 8.83656 17.3195 0ZM17.3195 32C8.20682 32 0.819519 24.8366 0.819519 16C9.93222 16 17.3195 23.1634 17.3195 32ZM33.8195 16C24.7068 16 17.3195 8.83656 17.3195 0C26.4322 0 33.8195 7.16344 33.8195 16ZM33.8195 16C24.7068 16 17.3195 23.1634 17.3195 32C26.4322 32 33.8195 24.8366 33.8195 16ZM95.0695 10.0109H98.1853V7.26184H95.0695V10.0109ZM95.0695 24.1H98.1853V11.7291H95.0695V24.1ZM55.3697 24.1H45.1522V7.60547H48.2678V21.1906H55.3697V24.1ZM64.7742 23.6188C63.835 24.1686 62.7468 24.4436 61.5096 24.4436C60.2649 24.4436 59.173 24.1648 58.2336 23.6074C57.2944 23.0499 56.5612 22.2825 56.0344 21.305C55.5151 20.3199 55.2554 19.1897 55.2554 17.9145C55.2554 16.6239 55.5227 15.4899 56.0572 14.5125C56.5918 13.5274 57.3288 12.7599 58.268 12.2101C59.2072 11.6603 60.2878 11.3854 61.5096 11.3854C62.7544 11.3854 63.8464 11.6641 64.7856 12.2216C65.7325 12.779 66.4694 13.5503 66.9964 14.5354C67.5232 15.5129 67.7868 16.6392 67.7868 17.9145C67.7868 19.1974 67.5195 20.3314 66.985 21.3165C66.458 22.2939 65.7211 23.0613 64.7742 23.6188ZM59.299 20.5605C59.803 21.2096 60.5398 21.5341 61.5096 21.5341C62.51 21.5341 63.2545 21.1981 63.7432 20.5261C64.2397 19.8465 64.4878 18.976 64.4878 17.9145C64.4878 16.8148 64.2358 15.9367 63.7318 15.2799C63.2355 14.6232 62.4948 14.2948 61.5096 14.2948C60.494 14.2948 59.7456 14.6309 59.2646 15.3028C58.7911 15.9672 58.5544 16.8378 58.5544 17.9145C58.5544 19.0218 58.8025 19.9038 59.299 20.5605ZM73.9482 24.4436C74.5286 24.4436 75.0631 24.3748 75.5519 24.2374C76.0482 24.0999 76.4988 23.9052 76.9035 23.6532V24.9018C76.9188 25.3599 76.8004 25.7417 76.5484 26.0472C76.304 26.3603 75.9757 26.5932 75.5633 26.7459C75.1509 26.9063 74.7118 26.9865 74.2461 26.9865C73.8108 26.9865 73.406 26.891 73.0319 26.7001C72.6653 26.5092 72.3827 26.2305 72.1842 25.8639L69.2977 27.2614C69.7711 28.0632 70.4469 28.7085 71.3251 29.1972C72.2034 29.6935 73.1693 29.9418 74.2231 29.9418C75.1319 29.9418 75.9757 29.8195 76.7546 29.5752C77.5335 29.3385 78.1902 28.9758 78.7248 28.487C79.2669 27.9983 79.6374 27.3759 79.8359 26.6199C79.9046 26.3526 79.9504 26.0816 79.9733 25.8066C80.0038 25.5394 80.0191 25.253 80.0191 24.9476V11.729H77.2929V12.4163C76.8729 12.0879 76.3956 11.8359 75.8611 11.6603C75.3342 11.477 74.7501 11.3854 74.1086 11.3854C72.925 11.3854 71.894 11.668 71.0159 12.233C70.1377 12.7981 69.4542 13.5732 68.9655 14.5583C68.4844 15.5357 68.2439 16.6545 68.2439 17.9145C68.2439 19.1516 68.4806 20.2626 68.9541 21.2478C69.4351 22.2328 70.1033 23.0118 70.9586 23.5845C71.8138 24.1572 72.8104 24.4436 73.9482 24.4436ZM74.4522 21.6716C73.7803 21.6716 73.2304 21.5035 72.8028 21.1676C72.3752 20.8316 72.0582 20.3811 71.8521 19.8159C71.6459 19.2432 71.5428 18.6094 71.5428 17.9145C71.5428 17.2272 71.6497 16.6011 71.8635 16.0359C72.0774 15.4632 72.4057 15.0089 72.8486 14.6728C73.2991 14.3292 73.8719 14.1574 74.5668 14.1574C75.5442 14.1574 76.2429 14.5049 76.6629 15.1998C77.083 15.887 77.2929 16.7919 77.2929 17.9145C77.2929 19.037 77.0791 19.9457 76.6515 20.6406C76.2315 21.3279 75.4984 21.6716 74.4522 21.6716ZM90.6839 23.6188C89.7446 24.1686 88.6564 24.4436 87.4193 24.4436C86.1746 24.4436 85.0826 24.1648 84.1433 23.6074C83.2041 23.0499 82.4709 22.2825 81.9441 21.305C81.4248 20.3199 81.1651 19.1897 81.1651 17.9145C81.1651 16.6239 81.4324 15.4899 81.9669 14.5125C82.5015 13.5274 83.2384 12.7599 84.1777 12.2101C85.1169 11.6603 86.1975 11.3854 87.4193 11.3854C88.664 11.3854 89.7561 11.6641 90.6953 12.2216C91.6423 12.779 92.3794 13.5503 92.9059 14.5354C93.4333 15.5129 93.6961 16.6392 93.6961 17.9145C93.6961 19.1974 93.4288 20.3314 92.8942 21.3165C92.3677 22.2939 91.6306 23.0613 90.6839 23.6188ZM85.2085 20.5605C85.7125 21.2096 86.4495 21.5341 87.4193 21.5341C88.4196 21.5341 89.1642 21.1981 89.6529 20.5261C90.1493 19.8465 90.3975 18.976 90.3975 17.9145C90.3975 16.8148 90.1455 15.9367 89.6415 15.2799C89.1451 14.6232 88.4044 14.2948 87.4193 14.2948C86.4036 14.2948 85.6553 14.6309 85.1742 15.3028C84.7008 15.9672 84.4641 16.8378 84.4641 17.9145C84.4641 19.0218 84.7122 19.9038 85.2085 20.5605ZM103.36 29.5981H100.222V11.729H102.971V12.4163C103.391 12.0879 103.864 11.8359 104.392 11.6603C104.926 11.477 105.514 11.3854 106.156 11.3854C107.339 11.3854 108.37 11.668 109.248 12.233C110.126 12.7981 110.806 13.5732 111.287 14.5583C111.776 15.5357 112.02 16.6545 112.02 17.9145C112.02 19.1516 111.78 20.2626 111.298 21.2478C110.825 22.2328 110.161 23.0118 109.306 23.5845C108.451 24.1572 107.453 24.4436 106.316 24.4436C105.735 24.4436 105.197 24.3748 104.7 24.2374C104.212 24.0999 103.765 23.9052 103.36 23.6532V29.5981ZM103.612 20.6406C104.041 21.3279 104.773 21.6716 105.812 21.6716C106.484 21.6716 107.034 21.5035 107.462 21.1676C107.889 20.8316 108.206 20.3811 108.412 19.8159C108.618 19.2432 108.722 18.6094 108.722 17.9145C108.722 17.2272 108.614 16.6011 108.4 16.0359C108.187 15.4632 107.855 15.0089 107.404 14.6728C106.961 14.3292 106.392 14.1574 105.698 14.1574C104.727 14.1574 104.029 14.5049 103.601 15.1998C103.181 15.887 102.971 16.7919 102.971 17.9145C102.971 19.037 103.185 19.9457 103.612 20.6406ZM117.665 24.4436C119.283 24.4436 120.551 24.0809 121.467 23.3554C122.384 22.6299 122.842 21.6334 122.842 20.3658C122.842 19.4036 122.544 18.6438 121.949 18.0863C121.36 17.5289 120.36 17.0668 118.947 16.7003C117.985 16.4559 117.267 16.2573 116.794 16.1046C116.328 15.952 116.019 15.803 115.866 15.6579C115.721 15.5129 115.649 15.3334 115.649 15.1196C115.649 14.7606 115.82 14.4858 116.164 14.2948C116.516 14.1039 116.977 14.0276 117.55 14.0658C118.764 14.1574 119.429 14.6767 119.543 15.6236L122.727 15.0508C122.567 13.9283 122.017 13.0387 121.078 12.3819C120.139 11.7176 118.94 11.3854 117.481 11.3854C115.985 11.3854 114.789 11.7366 113.896 12.4392C113.003 13.1417 112.556 14.0886 112.556 15.2799C112.556 16.2268 112.865 16.9752 113.483 17.525C114.102 18.0672 115.167 18.533 116.679 18.9225C117.573 19.1592 118.229 19.3501 118.649 19.4952C119.077 19.6403 119.352 19.7892 119.474 19.9419C119.596 20.087 119.657 20.2818 119.657 20.5261C119.657 20.9156 119.504 21.221 119.199 21.4425C118.894 21.6563 118.459 21.7632 117.893 21.7632C117.206 21.7632 116.637 21.599 116.187 21.2706C115.744 20.9423 115.457 20.488 115.328 19.9076L112.143 20.3886C112.349 21.6792 112.93 22.6796 113.885 23.3898C114.847 24.0923 116.107 24.4436 117.665 24.4436ZM130.926 24.0198C130.261 24.3176 129.483 24.4665 128.589 24.4665C127.62 24.4665 126.829 24.3023 126.218 23.974C125.607 23.6455 125.13 23.2294 124.787 22.7254C124.45 22.2214 124.21 21.6983 124.065 21.1561C123.92 20.6063 123.832 20.1061 123.801 19.6556C123.77 19.205 123.755 18.8766 123.755 18.6705V11.729H126.917V17.5708C126.917 17.8534 126.932 18.2161 126.963 18.659C126.993 19.0943 127.089 19.5334 127.249 19.9763C127.409 20.4192 127.669 20.7896 128.028 21.0874C128.395 21.3852 128.91 21.5341 129.575 21.5341C129.842 21.5341 130.128 21.4921 130.433 21.4081C130.739 21.3241 131.025 21.1638 131.293 20.927C131.56 20.6827 131.778 20.3276 131.945 19.8618C132.121 19.3883 132.209 18.7698 132.209 18.0061V11.729H135.347V24.1H132.599V22.8285C132.148 23.3249 131.591 23.722 130.926 24.0198ZM137.152 24.1H140.29V16.6087C140.29 15.8986 140.484 15.3221 140.874 14.8791C141.271 14.4285 141.794 14.2033 142.444 14.2033C143.123 14.2033 143.654 14.4324 144.036 14.8906C144.425 15.3411 144.62 15.9749 144.62 16.792V24.1H147.736V16.6087C147.736 15.8986 147.93 15.3221 148.32 14.8791C148.717 14.4285 149.24 14.2033 149.888 14.2033C150.569 14.2033 151.099 14.4324 151.481 14.8906C151.87 15.3411 152.066 15.9749 152.066 16.792V24.1H155.18V15.9673C155.18 14.6157 154.818 13.5237 154.092 12.6913C153.375 11.8513 152.309 11.4313 150.896 11.4313C150.103 11.4313 149.374 11.6031 148.709 11.9467C148.044 12.2904 147.514 12.76 147.116 13.3557C146.796 12.7753 146.338 12.3095 145.742 11.9582C145.146 11.607 144.406 11.4313 143.52 11.4313C142.771 11.4313 142.085 11.5802 141.458 11.878C140.832 12.1682 140.312 12.5691 139.9 13.0807V11.7291H137.152V24.1Z" fill="#626981"/>
</svg>
