<svg width="188" height="48" viewBox="0 0 188 48" fill="none" xmlns="http://www.w3.org/2000/svg">
<path fill-rule="evenodd" clip-rule="evenodd" d="M54.8628 23.9999C54.8628 33.6986 47.0005 41.5609 37.3018 41.5609C27.6031 41.5609 19.7408 33.6986 19.7408 23.9999C19.7408 14.3013 27.6031 6.43896 37.3018 6.43896C47.0005 6.43896 54.8628 14.3013 54.8628 23.9999ZM41.2881 13.7103C42.1276 13.1122 43.0469 13.6724 42.7802 14.6196L40.1397 23.9999H44.8196C45.8018 23.9999 45.9451 25.2922 45.0347 25.9408L33.3155 34.2895C32.4759 34.8876 31.5567 34.3275 31.8234 33.3803L33.9838 25.7052L38.8845 23.976H32.87V23.9999H29.784C28.8017 23.9999 28.6585 22.7077 29.5689 22.0591L41.2881 13.7103ZM75.1703 31.0242H64.6759V15.9569H68.4058V27.8633H75.1703V31.0242ZM79.112 25.6506C79.112 27.6105 79.8917 28.917 81.3879 28.917C82.8841 28.917 83.6848 27.6105 83.6848 25.6506C83.6848 23.6908 82.8841 22.3632 81.3879 22.3632C79.8917 22.3632 79.112 23.6908 79.112 25.6506ZM87.1619 25.6506C87.1619 28.8959 84.886 31.3615 81.4089 31.3615C77.9529 31.3615 75.6349 28.8959 75.6349 25.6506C75.6349 22.4054 77.9529 19.9398 81.4089 19.9398C84.886 19.9398 87.1619 22.4054 87.1619 25.6506ZM93.1805 34.7542C94.7821 34.7542 96.194 34.396 97.1422 33.553C98.0062 32.7733 98.5752 31.5932 98.5752 29.9706V20.2348H95.2878V21.3938H95.2457C94.6135 20.4877 93.6441 19.9187 92.2111 19.9187C89.5348 19.9187 87.6804 22.1525 87.6804 25.3134C87.6804 28.6219 89.9352 30.4342 92.3586 30.4342C93.6652 30.4342 94.487 29.9074 95.1192 29.1909H95.2035V30.2656C95.2035 31.5722 94.5924 32.3308 93.1383 32.3308C92.0004 32.3308 91.4314 31.8461 91.2418 31.2771H87.9122C88.2494 33.532 90.2092 34.7542 93.1805 34.7542ZM93.1594 27.8844C91.8739 27.8844 91.031 26.8307 91.031 25.2081C91.031 23.5644 91.8739 22.5107 93.1594 22.5107C94.5924 22.5107 95.351 23.7329 95.351 25.187C95.351 26.7043 94.6556 27.8844 93.1594 27.8844ZM103.059 25.6506C103.059 27.6105 103.839 28.917 105.335 28.917C106.831 28.917 107.632 27.6105 107.632 25.6506C107.632 23.6908 106.831 22.3632 105.335 22.3632C103.839 22.3632 103.059 23.6908 103.059 25.6506ZM111.109 25.6506C111.109 28.8959 108.833 31.3615 105.356 31.3615C101.9 31.3615 99.5817 28.8959 99.5817 25.6506C99.5817 22.4054 101.9 19.9398 105.356 19.9398C108.833 19.9398 111.109 22.4054 111.109 25.6506ZM112.111 31.0242H115.546V20.2348H112.111V31.0242ZM112.111 18.7386H115.546V15.9569H112.111V18.7386ZM120.472 34.5856H117.037V20.2348H120.325V21.5413H120.388C121.126 20.572 122.179 19.9187 123.654 19.9187C126.52 19.9187 128.269 22.3843 128.269 25.6295C128.269 29.1277 126.394 31.3614 123.57 31.3614C122.179 31.3614 121.189 30.8135 120.514 29.9074H120.472V34.5856ZM120.367 25.756C120.367 27.505 121.21 28.7062 122.685 28.7062C123.992 28.7062 124.792 27.5893 124.792 25.756C124.792 23.9015 124.097 22.6793 122.622 22.6793C121.126 22.6793 120.367 24.0069 120.367 25.756ZM133.862 31.3614C136.685 31.3614 138.772 30.1392 138.772 27.779C138.772 25.0184 136.538 24.5337 134.641 24.2176C134.473 24.1865 134.307 24.1577 134.145 24.1295L134.143 24.1292L134.143 24.1292L134.143 24.1292C132.988 23.9288 132.049 23.7657 132.049 23.1007C132.049 22.4264 132.703 22.1103 133.546 22.1103C134.494 22.1103 135.147 22.4053 135.274 23.3747H138.435C138.266 21.2463 136.622 19.9187 133.567 19.9187C131.017 19.9187 128.909 21.0988 128.909 23.3747C128.909 25.9035 130.911 26.4092 132.787 26.7253C132.937 26.7518 133.085 26.7766 133.231 26.801C134.479 27.0097 135.526 27.1849 135.526 28.0529C135.526 28.7484 134.873 29.1277 133.841 29.1277C132.703 29.1277 131.986 28.6008 131.86 27.5261H128.614C128.72 29.9074 130.701 31.3614 133.862 31.3614ZM146.662 29.6967C145.882 30.7504 144.934 31.3404 143.438 31.3404C140.951 31.3404 139.644 29.7178 139.644 27.3154V20.2349H143.058V26.599C143.058 27.7791 143.585 28.4323 144.681 28.4323C145.861 28.4323 146.578 27.5473 146.578 26.2618V20.2349H150.012V31.0243H146.725V29.6967H146.662ZM151.506 31.0243H154.941V24.9763C154.941 23.6908 155.573 22.7847 156.648 22.7847C157.68 22.7847 158.165 23.459 158.165 24.618V31.0243H161.6V24.9763C161.6 23.6908 162.211 22.7847 163.307 22.7847C164.34 22.7847 164.824 23.459 164.824 24.618V31.0243H168.259V24.0069C168.259 21.5835 167.037 19.9187 164.592 19.9187C163.202 19.9187 162.043 20.5087 161.2 21.8153H161.158C160.61 20.6563 159.535 19.9187 158.123 19.9187C156.564 19.9187 155.531 20.6563 154.857 21.7731H154.793V20.2348H151.506V31.0243Z" fill="#626981"/>
</svg>
