<svg width="134" height="32" viewBox="0 0 134 32" fill="none" xmlns="http://www.w3.org/2000/svg">
<path fill-rule="evenodd" clip-rule="evenodd" d="M27.1981 6.33696C28.1179 7.43039 28.8756 8.65037 29.4481 9.95946C30.2821 11.8681 30.7111 13.929 30.7081 16.012C30.7052 20.05 29.1013 23.9222 26.2481 26.7797C23.3947 29.6372 19.525 31.2468 15.4869 31.2557C13.5306 31.2546 11.5933 30.8725 9.78313 30.1307C8.49203 29.6177 7.28001 28.9246 6.18314 28.072C4.47368 26.7692 3.0595 25.1192 2.03368 23.2304C1.00786 21.3418 0.393663 19.2573 0.231494 17.114C0.0693368 14.9709 0.362906 12.8176 1.09286 10.7961C1.82282 8.77456 2.97262 6.93051 4.4666 5.38536C5.96057 3.8402 7.76484 2.62894 9.76063 1.83133C11.7565 1.0337 13.8986 0.667808 16.046 0.757706C18.1934 0.847605 20.2975 1.39126 22.2197 2.35289C24.1418 3.31453 25.8386 4.67235 27.1981 6.33696ZM20.5606 4.9757C18.968 4.23449 17.2324 3.85052 15.4756 3.8507L15.4869 3.8282C13.4374 3.82668 11.4207 4.34365 9.62462 5.33103C7.82853 6.31841 6.31142 7.7441 5.21448 9.47538C4.11753 11.2068 3.47638 13.1874 3.35069 15.2331C3.22501 17.2788 3.61887 19.3232 4.49564 21.1757C5.00379 20.6419 5.31693 19.9522 5.38439 19.2182C5.58361 17.8419 6.2226 16.5669 7.20595 15.5836C8.18931 14.6002 9.4643 13.9612 10.8406 13.762C11.6143 13.6918 12.34 13.357 12.8954 12.8138C13.4509 12.2707 13.802 11.5526 13.8894 10.7807C14.0886 9.40439 14.7276 8.12938 15.711 7.14603C16.6943 6.16267 17.9693 5.52369 19.3456 5.32446C19.7639 5.26073 20.1723 5.14352 20.5606 4.9757ZM6.30689 23.7657C6.26189 23.8057 6.21689 23.8457 6.17189 23.887C7.04386 24.9076 8.07763 25.7779 9.23188 26.4632C9.53372 25.9997 9.7226 25.4718 9.78313 24.922C9.98934 23.5428 10.635 22.2671 11.624 21.2841C12.6131 20.3011 13.8928 19.6634 15.2731 19.4657C16.0479 19.3893 16.7724 19.0474 17.324 18.4979C17.8755 17.9484 18.2201 17.2252 18.2994 16.4507C18.4951 15.0729 19.133 13.7961 20.1169 12.812C21.101 11.8281 22.3778 11.1902 23.7556 10.9945C24.5317 10.9211 25.2549 10.5694 25.7919 10.0045C25.8463 9.95755 25.8954 9.90468 25.9381 9.84696C25.2421 8.65772 24.3437 7.59929 23.2831 6.71946C22.3517 7.59214 21.1725 8.15424 19.9081 8.3282C19.1318 8.3812 18.4007 8.71279 17.8494 9.26196C17.2681 9.83211 16.9193 10.5979 16.8706 11.4107C16.6714 12.787 16.0324 14.062 15.049 15.0454C14.0657 16.0287 12.7907 16.6677 11.4144 16.867C10.6404 16.9303 9.91621 17.2744 9.37813 17.8345C8.819 18.379 8.47204 19.1048 8.39939 19.882C8.22019 21.2645 7.57774 22.5454 6.57689 23.5157C6.48689 23.6057 6.39689 23.6857 6.30689 23.7657ZM12.1006 27.757C13.198 28.0716 14.3341 28.2307 15.4756 28.2295V28.1732C17.3348 28.166 19.1675 27.733 20.8333 26.9075C22.4992 26.082 23.9537 24.8857 25.0855 23.4109C26.2172 21.9359 26.9962 20.2212 27.3624 18.3984C27.7286 16.5757 27.6724 14.6934 27.1981 12.8957C26.344 13.4996 25.3554 13.8858 24.3181 14.0207C23.5454 14.0996 22.8235 14.4426 22.2742 14.9918C21.725 15.541 21.382 16.263 21.3031 17.0357C21.1033 18.4136 20.4626 19.6899 19.4771 20.6734C18.4915 21.657 17.214 22.295 15.8356 22.492C15.0629 22.5708 14.341 22.9138 13.7917 23.4631C13.2425 24.0123 12.8995 24.7342 12.8206 25.507C12.7201 26.2946 12.476 27.0572 12.1006 27.757ZM42.2619 9.34074H38.8869V22.987H42.2619V9.34074ZM48.8657 12.4457C45.6707 12.4457 43.6007 14.4595 43.6007 17.8345C43.6007 21.2657 45.6257 23.2345 48.8657 23.2345C52.1057 23.2345 54.1306 21.2095 54.1306 17.8345C54.1306 14.4595 52.0607 12.4457 48.8657 12.4457ZM48.8657 14.887C50.0132 14.887 50.7444 15.9782 50.7444 17.8345V17.8457C50.7444 19.7245 50.0244 20.7595 48.8657 20.7595C47.7069 20.7595 46.9982 19.657 46.9982 17.8345C46.9982 16.012 47.7182 14.887 48.8657 14.887ZM58.6419 23.6507H55.4019V23.662C55.5932 25.5295 57.4494 26.8682 60.4307 26.8682C63.6369 26.8682 65.8082 25.3382 65.8082 22.8745V12.637H62.4332V14.5157C62.1791 13.9086 61.7456 13.3935 61.1906 13.0396C60.6356 12.6858 59.9858 12.51 59.3282 12.5357C56.7407 12.5357 55.1882 14.572 55.1882 17.8007C55.1882 21.0295 56.8194 22.9082 59.2832 22.9082C59.9208 22.9429 60.5543 22.7856 61.1017 22.4568C61.6491 22.1278 62.0855 21.6425 62.3544 21.0632H62.4219V22.9532C62.4219 23.9657 61.7469 24.6632 60.4644 24.6632C60.0921 24.7133 59.7136 24.6417 59.3852 24.4594C59.0568 24.2769 58.7961 23.9933 58.6419 23.6507ZM60.4869 15.1457C61.6794 15.1457 62.4332 16.1807 62.4332 17.8232V17.8345C62.4332 19.4995 61.6907 20.4107 60.4869 20.4107C59.2832 20.4107 58.5632 19.477 58.5632 17.8232C58.5632 16.1695 59.2944 15.1457 60.4869 15.1457ZM72.3444 12.4345C69.1494 12.4345 67.0794 14.4482 67.0794 17.8232V17.8345C67.0794 21.2657 69.0932 23.2232 72.3444 23.2232C75.5957 23.2232 77.6207 21.1982 77.6207 17.8232C77.6207 14.4482 75.5394 12.4345 72.3444 12.4345ZM72.3444 14.8757C73.4919 14.8757 74.2232 15.967 74.2232 17.8232V17.8457C74.2232 19.7245 73.5369 20.7707 72.3894 20.7707C71.2419 20.7707 70.5331 19.6795 70.5331 17.8457C70.5331 16.012 71.1969 14.8757 72.3444 14.8757ZM79.169 9.21992C78.9869 9.50802 78.8943 9.84372 78.9032 10.1845V10.207C78.901 10.4334 78.9458 10.6579 79.0347 10.8661C79.1234 11.0745 79.2544 11.2622 79.4192 11.4175C79.584 11.5728 79.7791 11.6923 79.9924 11.7686C80.2056 11.8449 80.4323 11.8763 80.6581 11.8607C80.9989 11.854 81.3301 11.7461 81.6095 11.5509C81.8889 11.3557 82.1041 11.0819 82.2278 10.7643C82.3515 10.4466 82.3781 10.0994 82.3041 9.76666C82.2302 9.43389 82.0592 9.13055 81.8126 8.89511C81.5661 8.65968 81.2553 8.50273 80.9195 8.44417C80.5837 8.38561 80.2381 8.42808 79.9265 8.56618C79.6148 8.70429 79.3512 8.93181 79.169 9.21992ZM82.2782 12.6595H78.9032V22.987H82.2782V12.6595ZM90.4682 23.122C93.0332 23.122 94.5294 21.1982 94.5294 17.8232L94.5744 17.8457C94.5744 14.4707 93.0331 12.5357 90.4456 12.4907C89.7829 12.4611 89.1272 12.6364 88.5676 12.9927C88.008 13.349 87.5717 13.869 87.3182 14.482H87.2507V12.637H83.8757V26.2945H87.2507V21.2095H87.3182C87.5841 21.8125 88.0288 22.3193 88.5922 22.6614C89.1556 23.0034 89.8105 23.1642 90.4682 23.122ZM89.2194 15.1345C90.4007 15.1345 91.1544 16.1807 91.1544 17.8232V17.8457C91.1544 19.477 90.4007 20.5007 89.2194 20.5007C88.0382 20.5007 87.2619 19.4545 87.2731 17.8232C87.2844 16.192 88.0382 15.1345 89.2194 15.1345ZM104.902 15.877C104.823 13.7507 103.124 12.4232 100.323 12.4232V12.4457C97.5332 12.4457 95.7219 13.762 95.6994 15.787C95.6994 17.362 96.7569 18.4307 98.7707 18.847L100.717 19.2632C101.527 19.432 101.842 19.5445 101.842 20.0845C101.842 20.6245 101.392 20.9507 100.402 20.9507C99.4119 20.9507 98.8044 20.5007 98.7032 19.7357H95.4519C95.5982 21.8395 97.4769 23.212 100.346 23.212C103.214 23.212 105.161 21.8395 105.161 19.702C105.161 18.1382 104.283 17.3057 102.224 16.867L100.064 16.4282C99.3107 16.2707 98.9394 16.102 98.9394 15.5732C98.9394 15.0445 99.3557 14.6845 100.289 14.6845C101.223 14.6845 101.831 15.1457 101.831 15.877H104.902ZM113.171 22.9645H116.422L116.467 12.637H113.092V18.4645C113.125 18.7077 113.103 18.955 113.032 19.1898C112.961 19.4244 112.84 19.6412 112.679 19.8256C112.517 20.0099 112.317 20.1575 112.094 20.2584C111.87 20.3593 111.627 20.4112 111.382 20.4107C110.336 20.4107 109.706 19.7582 109.706 18.532V12.637H106.331V19.3082C106.288 19.82 106.356 20.335 106.529 20.8184C106.702 21.3018 106.978 21.7425 107.336 22.1104C107.694 22.4784 108.128 22.765 108.606 22.9512C109.085 23.1374 109.598 23.2186 110.111 23.1895C110.78 23.2266 111.442 23.0337 111.986 22.6428C112.531 22.2519 112.924 21.6866 113.103 21.0407H113.171V22.9645ZM121.316 12.637H118.053L117.997 22.987H121.372V16.9007C121.346 16.6891 121.366 16.4746 121.429 16.2712C121.493 16.0677 121.599 15.88 121.741 15.7206C121.882 15.5612 122.056 15.4335 122.251 15.346C122.444 15.2586 122.656 15.2133 122.868 15.2132C123.791 15.2132 124.297 15.7757 124.297 16.8107V22.987H127.503V16.8782C127.476 16.6693 127.493 16.4569 127.555 16.2553C127.617 16.0538 127.721 15.868 127.861 15.7101C128 15.5523 128.173 15.4263 128.365 15.3406C128.557 15.2549 128.767 15.2114 128.977 15.2132C129.922 15.2132 130.428 15.7307 130.428 16.8557V22.987H133.803V15.9557C133.837 15.4977 133.773 15.0377 133.618 14.6058C133.461 14.174 133.216 13.7796 132.898 13.4486C132.579 13.1176 132.196 12.8571 131.769 12.6845C131.344 12.5117 130.887 12.4303 130.428 12.4457C129.725 12.4155 129.031 12.6202 128.457 13.0276C127.882 13.4349 127.459 14.0217 127.256 14.6957H127.188C127.08 14.0288 126.725 13.4272 126.194 13.0103C125.662 12.5933 124.993 12.3918 124.319 12.4457C123.658 12.4335 123.01 12.6411 122.479 13.036C121.948 13.4309 121.562 13.9909 121.383 14.6282H121.316V12.637Z" fill="#626981"/>
</svg>
