<svg width="150" height="28" viewBox="0 0 150 28" fill="none" xmlns="http://www.w3.org/2000/svg">
<path fill-rule="evenodd" clip-rule="evenodd" d="M14.1754 11.2316C7.76298 11.2316 2.48214 6.38678 1.79358 0.157959H10.7027C11.2528 1.53677 12.6003 2.51109 14.1754 2.51109C15.7504 2.51109 17.0979 1.53677 17.6479 0.157959H26.557C25.8685 6.38678 20.5876 11.2316 14.1754 11.2316ZM49.0329 23.8533C50.0046 24.8928 51.4056 25.4124 53.2358 25.4124C55.0661 25.4124 56.467 24.8928 57.4387 23.8533C58.4103 22.8139 58.8961 21.3452 58.8961 19.447V6.97404C58.8961 5.07597 58.4103 3.60722 57.4387 2.5678C56.467 1.52838 55.0661 1.00867 53.2358 1.00867C51.4056 1.00867 50.0046 1.52838 49.0329 2.5678C48.0613 3.60722 47.5755 5.07597 47.5755 6.97404V19.447C47.5755 21.3452 48.0613 22.8139 49.0329 23.8533ZM55.1678 19.6843C55.1678 21.2434 54.5238 22.023 53.2358 22.023C51.9478 22.023 51.3038 21.2434 51.3038 19.6843V6.73678C51.3038 5.17764 51.9478 4.39808 53.2358 4.39808C54.5238 4.39808 55.1678 5.17764 55.1678 6.73678V19.6843ZM40.0563 1.34766H36.3279V25.0736H46.1911V21.6841H40.0563V1.34766ZM66.705 25.4124C64.8974 25.4124 63.519 24.9041 62.5699 23.8872C61.6209 22.8478 61.1464 21.3677 61.1464 19.447V6.97404C61.1464 5.05337 61.6209 3.58462 62.5699 2.5678C63.519 1.52838 64.8974 1.00867 66.705 1.00867C68.5127 1.00867 69.8911 1.52838 70.8401 2.5678C71.7892 3.58462 72.2637 5.05337 72.2637 6.97404V9.00768H68.7387V6.73678C68.7387 5.17764 68.0947 4.39808 66.8067 4.39808C65.5188 4.39808 64.8748 5.17764 64.8748 6.73678V19.7183C64.8748 21.2548 65.5188 22.023 66.8067 22.023C68.0947 22.023 68.7387 21.2548 68.7387 19.7183V15.0747H66.8745V11.6853H72.2637V19.447C72.2637 21.3677 71.7892 22.8478 70.8401 23.8872C69.8911 24.9041 68.5127 25.4124 66.705 25.4124ZM75.8438 23.8533C76.8154 24.8928 78.2163 25.4124 80.0466 25.4124C81.8769 25.4124 83.2779 24.8928 84.2495 23.8533C85.2212 22.8139 85.707 21.3452 85.707 19.447V6.97404C85.707 5.07597 85.2212 3.60722 84.2495 2.5678C83.2779 1.52838 81.8769 1.00867 80.0466 1.00867C78.2163 1.00867 76.8154 1.52838 75.8438 2.5678C74.8721 3.60722 74.3863 5.07597 74.3863 6.97404V19.447C74.3863 21.3452 74.8721 22.8139 75.8438 23.8533ZM81.9786 19.6843C81.9786 21.2434 81.3346 22.023 80.0466 22.023C78.7587 22.023 78.1147 21.2434 78.1147 19.6843V6.73678C78.1147 5.17764 78.7587 4.39808 80.0466 4.39808C81.3346 4.39808 81.9786 5.17764 81.9786 6.73678V19.6843ZM88.2354 1.34766H91.9638V25.0736H88.2354V1.34766ZM100.247 1.34766H94.7559V25.0736H98.4846V15.4137H100.247C102.099 15.4137 103.489 14.9166 104.416 13.9224C105.343 12.9281 105.806 11.4707 105.806 9.55002V7.21134C105.806 5.29067 105.343 3.83323 104.416 2.839C103.489 1.84477 102.099 1.34766 100.247 1.34766ZM101.603 11.5159C101.309 11.8548 100.857 12.0243 100.247 12.0243H98.4846V4.73707H100.247C100.857 4.73707 101.309 4.90654 101.603 5.24548C101.919 5.58442 102.077 6.16062 102.077 6.97409V9.78728C102.077 10.6008 101.919 11.1769 101.603 11.5159ZM112.809 25.4124C111.002 25.4124 109.635 24.9041 108.708 23.8872C107.782 22.8478 107.319 21.3677 107.319 19.447V18.0913H110.844V19.7183C110.844 21.2548 111.488 22.023 112.776 22.023C113.409 22.023 113.883 21.8423 114.199 21.4808C114.538 21.0966 114.708 20.4865 114.708 19.6504C114.708 18.6562 114.482 17.7863 114.03 17.0406C113.578 16.2723 112.742 15.3572 111.521 14.2951C109.985 12.9394 108.912 11.7192 108.301 10.6346C107.692 9.52739 107.387 8.28461 107.387 6.90625C107.387 5.03077 107.861 3.58462 108.81 2.5678C109.759 1.52838 111.138 1.00867 112.946 1.00867C114.73 1.00867 116.075 1.52838 116.979 2.5678C117.905 3.58462 118.368 5.05337 118.368 6.97404V7.95697H114.843V6.73678C114.843 5.92332 114.685 5.33582 114.369 4.97428C114.053 4.59015 113.59 4.39808 112.979 4.39808C111.736 4.39808 111.115 5.15505 111.115 6.66899C111.115 7.52764 111.341 8.3298 111.793 9.07547C112.267 9.82111 113.115 10.7249 114.335 11.787C115.894 13.1427 116.967 14.3743 117.555 15.4815C118.142 16.5887 118.436 17.8879 118.436 19.3793C118.436 21.3226 117.95 22.8139 116.979 23.8533C116.029 24.8928 114.64 25.4124 112.809 25.4124ZM121.862 23.8872C122.811 24.9041 124.19 25.4125 125.997 25.4125C127.804 25.4125 129.183 24.9041 130.132 23.8872C131.081 22.8479 131.555 21.3678 131.555 19.4471V1.34766H127.963V19.7183C127.963 20.5317 127.793 21.1192 127.454 21.4808C127.138 21.8423 126.675 22.0231 126.065 22.0231C125.455 22.0231 124.98 21.8423 124.641 21.4808C124.325 21.1192 124.167 20.5317 124.167 19.7183V1.34766H120.438V19.4471C120.438 21.3678 120.913 22.8479 121.862 23.8872ZM134.211 1.34766H139.533L141.905 18.3286H141.972L144.346 1.34766H149.667V25.0736H146.141V7.10966H146.074L143.362 25.0736H140.244L137.532 7.10966H137.465V25.0736H134.211V1.34766ZM8.63856 16.7684C8.63856 21.3551 4.92022 25.0735 0.333374 25.0735V19.2599C1.70942 19.2599 2.82492 18.1444 2.82492 16.7684C2.82492 15.3923 1.70942 14.2767 0.333374 14.2767V8.46313C4.92022 8.46313 8.63856 12.1815 8.63856 16.7684ZM28.0173 11.2316C26.5981 10.782 25.0868 10.5394 23.5187 10.5394C15.3006 10.5394 8.63858 17.2016 8.63858 25.4196C8.63858 26.2444 8.7057 27.0536 8.83475 27.8419H18.0802C17.7502 27.102 17.5667 26.2822 17.5667 25.4196C17.5667 22.1324 20.2315 19.4675 23.5187 19.4675C25.3153 19.4675 26.926 20.2635 28.0173 21.5221V11.2316Z" fill="#626981"/>
</svg>
