<svg width="162" height="30" viewBox="0 0 162 30" fill="none" xmlns="http://www.w3.org/2000/svg">
<path fill-rule="evenodd" clip-rule="evenodd" d="M7.75885 15.3047C7.56209 15.8554 7.24601 16.3558 6.83316 16.7704H6.83533C6.36035 17.2465 5.7727 17.5952 5.12682 17.7842C4.48092 17.9731 3.79771 17.9963 3.14049 17.8515C2.48326 17.7066 1.87327 17.3985 1.36707 16.9556C0.860859 16.5128 0.474795 15.9495 0.244669 15.318C0.0145426 14.6866 -0.0522177 14.0073 0.050575 13.3432C0.153379 12.6791 0.422402 12.0516 0.832734 11.5191C1.24307 10.9864 1.78143 10.5658 2.39792 10.2962C3.01442 10.0266 3.68911 9.91661 4.35947 9.97664L4.33986 9.95706C5.02593 10.0149 5.71636 9.92248 6.36299 9.68638C7.00961 9.45035 7.59685 9.0762 8.08369 8.59013C8.57054 8.10405 8.94522 7.51775 9.1817 6.87215C9.41817 6.22656 9.51076 5.53721 9.45281 4.85223L9.47242 4.87181C9.39552 4.05267 9.57361 3.22978 9.98241 2.51539C10.3911 1.80099 11.0106 1.22986 11.7564 0.879872C12.5021 0.529886 13.3378 0.418067 14.1496 0.559695C14.9613 0.701312 15.7096 1.08947 16.2922 1.67123C16.8749 2.25299 17.2637 3.00003 17.4056 3.81048C17.5474 4.62094 17.4354 5.45534 17.0849 6.19992C16.7342 6.9445 16.1623 7.563 15.4467 7.97108C14.7312 8.37916 13.907 8.55696 13.0866 8.48021L13.1073 8.49979C12.421 8.44162 11.7303 8.53374 11.0834 8.76969C10.4365 9.00562 9.84908 9.37972 9.36197 9.86582C8.87486 10.3519 8.4999 10.9383 8.26331 11.5841C8.02671 12.2299 7.93417 12.9195 7.99211 13.6046L7.97143 13.585C8.0282 14.1669 7.95561 14.7541 7.75885 15.3047ZM14.1334 18.953L14.1127 18.9334C14.6958 18.9921 15.2847 18.9206 15.8368 18.7242C16.3888 18.5278 16.8903 18.2114 17.3049 17.7979C17.7194 17.3843 18.0368 16.8838 18.2338 16.3327C18.431 15.7817 18.503 15.1939 18.4447 14.6116L18.4654 14.6312C18.4074 13.9462 18.5 13.2569 18.7364 12.6112C18.9729 11.9657 19.3477 11.3794 19.8345 10.8933C20.3214 10.4073 20.9086 10.0331 21.5552 9.79706C22.2019 9.56092 22.8922 9.46855 23.5783 9.52638L23.5576 9.5068C24.3784 9.5838 25.2029 9.40605 25.9187 8.99795C26.6347 8.58985 27.207 7.97119 27.5577 7.22638C27.9084 6.48158 28.0205 5.64687 27.8787 4.83611C27.7369 4.02535 27.348 3.27803 26.7651 2.69605C26.1822 2.11408 25.4337 1.72579 24.6216 1.58418C23.8096 1.44255 22.9736 1.55447 22.2276 1.90467C21.4815 2.25486 20.862 2.8263 20.4532 3.54103C20.0444 4.25575 19.8664 5.07898 19.9435 5.8984L19.9239 5.87774C19.982 6.56276 19.8896 7.25218 19.6532 7.89787C19.4169 8.54355 19.042 9.12993 18.5553 9.6161C18.0684 10.1021 17.481 10.4763 16.8343 10.7123C16.1875 10.9483 15.4971 11.0405 14.811 10.9826L14.8306 11.0032C14.2475 10.9446 13.6585 11.0161 13.1065 11.2125C12.5545 11.4088 12.053 11.7252 11.6384 12.1388C11.2238 12.5524 10.9065 13.0529 10.7094 13.6039C10.5123 14.155 10.4403 14.7428 10.4986 15.325L10.479 15.3055C10.5367 15.9904 10.444 16.6797 10.2076 17.3252C9.97097 17.9707 9.59627 18.5569 9.10948 19.043C8.62265 19.529 8.0355 19.9031 7.38896 20.1393C6.74242 20.3754 6.05207 20.4679 5.36605 20.4103L5.38565 20.4299C4.56492 20.3529 3.74039 20.5306 3.02452 20.9387C2.30867 21.3469 1.73632 21.9655 1.38557 22.7103C1.03481 23.4552 0.922704 24.2898 1.06456 25.1006C1.20641 25.9113 1.59532 26.6587 2.17821 27.2406C2.76111 27.8226 3.50962 28.2109 4.32167 28.3525C5.13372 28.4941 5.96975 28.3822 6.71575 28.032C7.46173 27.6818 8.08138 27.1104 8.49013 26.3957C8.89893 25.6809 9.07691 24.8577 8.99979 24.0383L9.02049 24.0579C8.96254 23.3728 9.05513 22.6836 9.2916 22.0379C9.52797 21.3923 9.90278 20.8061 10.3896 20.3199C10.8765 19.8339 11.4637 19.4597 12.1103 19.2237C12.7569 18.9876 13.4473 18.8952 14.1334 18.953ZM22.1688 13.2272C21.756 13.6419 21.4399 14.1424 21.243 14.6929C21.046 15.2435 20.9732 15.8306 21.0295 16.4126L21.0099 16.393C21.0678 17.078 20.9752 17.7673 20.7388 18.413C20.5023 19.0585 20.1276 19.6448 19.6408 20.1309C19.1539 20.6169 18.5667 20.9911 17.92 21.2271C17.2734 21.4632 16.5829 21.5557 15.8969 21.4978L15.9165 21.5174C15.0959 21.4412 14.2717 21.6194 13.5561 22.028C12.8407 22.4366 12.2689 23.0555 11.9187 23.8004C11.5685 24.5454 11.4568 25.38 11.5991 26.1906C11.7414 27.0011 12.1306 27.7481 12.7137 28.3298C13.2968 28.9114 14.0453 29.2993 14.8572 29.4405C15.6693 29.5819 16.5051 29.4697 17.2509 29.1194C17.9967 28.769 18.616 28.1976 19.0246 27.4829C19.4332 26.7682 19.6111 25.9451 19.5339 25.1258L19.5546 25.1454C19.4967 24.4605 19.5892 23.7711 19.8256 23.1254C20.0621 22.4799 20.4369 21.8936 20.9237 21.4075C21.4106 20.9214 21.9978 20.5472 22.6444 20.3112C23.2911 20.0751 23.9815 19.9827 24.6676 20.0405L24.6469 20.021C25.3172 20.0811 25.992 19.9714 26.6086 19.7019C27.2252 19.4324 27.7637 19.0119 28.1741 18.4793C28.5845 17.9467 28.8538 17.3192 28.9566 16.6552C29.0596 15.991 28.9929 15.3118 28.7629 14.6801C28.5328 14.0486 28.1468 13.4853 27.6406 13.0423C27.1344 12.5994 26.5244 12.2912 25.8672 12.1463C25.2099 12.0015 24.5266 12.0245 23.8807 12.2134C23.2348 12.4024 22.6471 12.7511 22.1721 13.2272H22.1688ZM43.9175 5.48596H47.4815V22.8296H43.9175V5.48596ZM50.5488 13.3858C49.86 14.4246 49.4949 15.6445 49.4999 16.8908C49.4937 17.7182 49.6526 18.5385 49.9673 19.3038C50.2818 20.069 50.7457 20.7639 51.332 21.3478C51.9182 21.9316 52.6149 22.3928 53.3815 22.7043C54.1481 23.0158 54.969 23.1715 55.7963 23.162C57.0427 23.162 58.2609 22.792 59.297 22.099C60.333 21.4062 61.14 20.4212 61.6158 19.2693C62.0916 18.1173 62.2148 16.85 61.9698 15.6279C61.7247 14.4058 61.1226 13.284 60.2395 12.4045C59.3564 11.5249 58.2321 10.9273 57.0091 10.6872C55.7861 10.447 54.5193 10.5753 53.3693 11.0558C52.2192 11.5362 51.2376 12.3471 50.5488 13.3858ZM58.0316 15.3931C58.3409 15.8326 58.5138 16.3536 58.5287 16.8908C58.5487 17.2585 58.4923 17.6263 58.3631 17.971C58.2339 18.3158 58.0346 18.6301 57.7779 18.8941C57.5213 19.158 57.2126 19.3658 56.8716 19.5045C56.5304 19.6432 56.1643 19.7098 55.7963 19.7C55.2589 19.7 54.7333 19.5416 54.2853 19.2446C53.8375 18.9476 53.4871 18.5252 53.2779 18.0301C53.0688 17.535 53.0103 16.9892 53.1097 16.4611C53.2089 15.9328 53.4619 15.4456 53.8365 15.0604C54.2113 14.6751 54.6913 14.409 55.2165 14.295C55.7418 14.181 56.2889 14.2244 56.7896 14.4198C57.2903 14.615 57.7223 14.9536 58.0316 15.3931ZM76.2971 10.9508V22.2308C76.2971 26.222 73.1843 27.9092 70.0247 27.9092C68.9123 27.9925 67.7983 27.7678 66.8051 27.2598C65.8119 26.7517 64.9778 25.98 64.3943 25.0292L67.4351 23.2712C67.6803 23.7668 68.0712 24.1757 68.5551 24.4432C69.0392 24.7105 69.5934 24.8238 70.1435 24.7676C70.4951 24.8164 70.8531 24.7854 71.1912 24.677C71.5291 24.5687 71.8385 24.3857 72.0962 24.1417C72.354 23.8976 72.5535 23.5988 72.6803 23.2672C72.8069 22.9356 72.8573 22.5798 72.8279 22.226V21.14C72.4105 21.6506 71.8794 22.0564 71.2769 22.3246C70.6743 22.5928 70.0175 22.716 69.3587 22.6844C67.7912 22.635 66.3045 21.9776 65.2133 20.8513C64.122 19.7251 63.5118 18.2184 63.5118 16.6502C63.5118 15.0821 64.122 13.5754 65.2133 12.4492C66.3045 11.3228 67.7912 10.6655 69.3587 10.616C70.0175 10.5845 70.6743 10.7077 71.2769 10.9759C71.8794 11.2441 72.4105 11.6498 72.8279 12.1604V10.9484L76.2971 10.9508ZM72.8291 16.652C72.8531 16.0777 72.7045 15.5093 72.4027 15.02C72.1009 14.5307 71.6595 14.143 71.1355 13.9067C70.6115 13.6703 70.0287 13.5962 69.4622 13.6939C68.8957 13.7916 68.3714 14.0566 67.9567 14.4548C67.5421 14.853 67.2561 15.3661 67.1355 15.9282C67.0151 16.4903 67.0655 17.0756 67.2805 17.6088C67.4954 18.142 67.865 18.5987 68.3417 18.92C68.8183 19.2414 69.3803 19.4128 69.9551 19.412C70.3296 19.4382 70.7053 19.3856 71.0582 19.2577C71.4111 19.1298 71.7333 18.9293 72.0041 18.6694C72.2748 18.4093 72.4881 18.0955 72.6302 17.748C72.7723 17.4006 72.8401 17.0273 72.8291 16.652ZM79.3644 13.3858C78.6755 14.4246 78.3106 15.6445 78.3155 16.8908C78.3094 17.7182 78.4682 18.5385 78.7829 19.3038C79.0974 20.069 79.5613 20.7639 80.1476 21.3478C80.7338 21.9316 81.4305 22.3928 82.1971 22.7043C82.9636 23.0158 83.7846 23.1715 84.6119 23.162C85.8583 23.162 87.0766 22.792 88.1126 22.099C89.1486 21.4062 89.9556 20.4212 90.4314 19.2693C90.9072 18.1173 91.0304 16.85 90.7854 15.6279C90.5404 14.4058 89.9382 13.284 89.0551 12.4045C88.172 11.5249 87.0478 10.9273 85.8247 10.6872C84.6017 10.447 83.335 10.5753 82.1849 11.0558C81.0348 11.5362 80.0532 12.3471 79.3644 13.3858ZM86.8472 15.3931C87.1565 15.8326 87.3294 16.3536 87.3443 16.8908C87.3643 17.2585 87.3079 17.6263 87.1787 17.971C87.0496 18.3158 86.8502 18.6301 86.5936 18.8941C86.3369 19.158 86.0282 19.3658 85.6871 19.5045C85.346 19.6432 84.9799 19.7098 84.6119 19.7C84.0744 19.7 83.5489 19.5416 83.101 19.2446C82.6531 18.9476 82.3027 18.5252 82.0936 18.0301C81.8844 17.535 81.8258 16.9892 81.9252 16.4611C82.0246 15.9328 82.2775 15.4456 82.6522 15.0604C83.0269 14.6751 83.5069 14.409 84.0322 14.295C84.5573 14.181 85.1045 14.2244 85.6052 14.4198C86.1059 14.615 86.5379 14.9536 86.8472 15.3931ZM92.5703 7.76719C92.5703 7.34425 92.6957 6.93081 92.9306 6.57916C93.1656 6.2275 93.4996 5.95341 93.8904 5.79157C94.2811 5.62971 94.7111 5.58736 95.1259 5.66987C95.5406 5.75239 95.9217 5.95605 96.2208 6.25511C96.5198 6.55417 96.7234 6.93519 96.806 7.35001C96.8885 7.76481 96.8461 8.19477 96.6843 8.58551C96.5224 8.97626 96.2484 9.31023 95.8967 9.54523C95.5451 9.78019 95.1316 9.90559 94.7086 9.90559C94.1433 9.89995 93.6026 9.67291 93.2028 9.27304C92.803 8.87323 92.5759 8.33258 92.5703 7.76719ZM92.9303 10.9508H96.4955V22.8308H92.9254L92.9303 10.9508ZM111.548 19.2023C111.811 18.4615 111.925 17.676 111.884 16.8908C111.926 16.1056 111.812 15.3198 111.548 14.5789C111.285 13.8379 110.878 13.1563 110.35 12.5734C109.822 11.9904 109.184 11.5176 108.473 11.1821C107.762 10.8466 106.991 10.655 106.206 10.6184C105.545 10.5824 104.885 10.6937 104.273 10.9442C103.661 11.1947 103.113 11.5782 102.667 12.0668V10.9508H99.103V27.5816H102.667V21.7124C103.112 22.2014 103.661 22.5852 104.273 22.836C104.885 23.0867 105.545 23.198 106.206 23.162C106.991 23.1253 107.762 22.9337 108.473 22.5983C109.184 22.2628 109.821 21.79 110.349 21.2072C110.877 20.6244 111.284 19.943 111.548 19.2023ZM107.81 15.3397C108.129 15.7954 108.306 16.3349 108.32 16.8908C108.347 17.2721 108.293 17.6548 108.161 18.0136C108.029 18.3724 107.823 18.6992 107.556 18.973C107.29 19.2466 106.968 19.4608 106.613 19.6013C106.257 19.7419 105.876 19.8059 105.494 19.7888C104.938 19.789 104.394 19.6249 103.931 19.3175C103.467 19.0099 103.105 18.5726 102.889 18.0601C102.673 17.5476 102.613 16.9829 102.716 16.4364C102.819 15.8898 103.082 15.386 103.47 14.9878C103.858 14.5896 104.355 14.3148 104.899 14.1978C105.443 14.0807 106.009 14.1266 106.527 14.3298C107.044 14.5328 107.491 14.8842 107.81 15.3397ZM122.882 19.2656C122.882 21.998 120.507 23.162 117.942 23.162C116.905 23.2559 115.864 23.0368 114.954 22.5326C114.043 22.0286 113.304 21.263 112.833 20.3348L115.921 18.5768C116.046 19.0058 116.314 19.3792 116.681 19.6342C117.048 19.8893 117.492 20.0108 117.937 19.9784C118.791 19.9784 119.22 19.7168 119.22 19.2428C119.22 18.7711 118.46 18.5592 117.487 18.2884C115.764 17.8082 113.375 17.1425 113.375 14.5148C113.375 11.924 115.561 10.6184 118.032 10.6184C118.961 10.589 119.88 10.8094 120.695 11.2564C121.509 11.7035 122.19 12.3608 122.664 13.16L119.623 14.7992C119.49 14.4881 119.268 14.223 118.985 14.0371C118.701 13.8512 118.37 13.7528 118.032 13.754C117.414 13.754 117.033 13.994 117.033 14.4188C117.035 14.9023 117.781 15.0982 118.739 15.3499C120.465 15.8036 122.882 16.4387 122.882 19.2656ZM135.901 22.8308V10.9508L132.341 10.9544V17.4344C132.341 19.1216 131.438 19.8812 130.132 19.8812C129.847 19.8985 129.563 19.8536 129.299 19.7498C129.033 19.646 128.795 19.4858 128.598 19.2802C128.401 19.0747 128.251 18.8287 128.16 18.5594C128.067 18.2902 128.035 18.0042 128.065 17.7212V10.9508H124.501V18.2432C124.501 21.4532 126.541 23.1632 128.941 23.1632C129.582 23.2074 130.223 23.099 130.813 22.847C131.404 22.595 131.925 22.2066 132.337 21.7136V22.8308H135.901ZM156.337 15.536V22.8296H152.773V15.8444C152.773 14.6564 152.203 13.8968 151.063 13.8968C149.875 13.8968 149.209 14.7284 149.209 16.13V22.8296H145.646V15.8444C145.646 14.6564 145.076 13.8968 143.935 13.8968C142.747 13.8968 142.082 14.7284 142.082 16.13V22.8296H138.518V10.9496H142.082V12.0416C142.452 11.5571 142.937 11.1729 143.492 10.9241C144.049 10.6752 144.659 10.5698 145.266 10.6172C145.875 10.5873 146.483 10.716 147.029 10.9907C147.573 11.2653 148.038 11.6766 148.377 12.1844C148.772 11.6531 149.295 11.2307 149.898 10.9566C150.5 10.6826 151.163 10.5658 151.823 10.6172C154.55 10.6184 156.337 12.566 156.337 15.536ZM161.996 8.23281C161.996 9.69345 160.812 10.8776 159.351 10.8776C157.891 10.8776 156.707 9.69345 156.707 8.23281C156.707 6.77213 157.891 5.58801 159.351 5.58801C160.812 5.58801 161.996 6.77213 161.996 8.23281Z" fill="#626981"/>
</svg>
